%
M48
M72
T01C0.0197
T02C0.0236
T03C0.0320
T04C0.0394
T05C0.0400
T06C0.0551
T07C0.1181
%
T01
X12768Y24475
T02
X11393Y23913
X9643Y24944
X8956Y25350
X9643Y26882
X7768Y26882
X15175Y27225
X16237Y26100
X16300Y24475
X17612Y24475
X19925Y25913
X18862Y26975
X21112Y27038
X24331Y26663
X23268Y24600
X23081Y23850
X22268Y23850
X22143Y24600
X19800Y23038
X19800Y22163
X20581Y22163
X18956Y22163
X18831Y21225
X18643Y20663
X17331Y20507
X15643Y20163
X15643Y19225
X16518Y19225
X18268Y19225
X19612Y19225
X20893Y19288
X21581Y18975
X22581Y18538
X23706Y19225
X24768Y19163
X26268Y18975
X27018Y19100
X27768Y19225
X28706Y19725
X30143Y19663
X31081Y19913
X30175Y20350
X30143Y21225
X28831Y20663
X27268Y20225
X25768Y20600
X24581Y21225
X23206Y20475
X22581Y20475
X21425Y20225
X20487Y20132
X20081Y20413
X19050Y17975
X18112Y17975
X16768Y17975
X15643Y17975
X13018Y17975
X13018Y19038
X12206Y20538
X11581Y20350
X10206Y20350
X8956Y20913
X7768Y20913
X10581Y18850
X8581Y16975
X8768Y16038
X9643Y15225
X8456Y14850
X8518Y13725
X9143Y13100
X10893Y13100
X10893Y13788
X10893Y14788
X12768Y14850
X12768Y13788
X12768Y13100
X14518Y13100
X14518Y13788
X14518Y14850
X17143Y14788
X18143Y14663
X17143Y13788
X16893Y12975
X16518Y12038
X15768Y11975
X15581Y11475
X15143Y11038
X13768Y11038
X11893Y11038
X11331Y9100
X12393Y8913
X13206Y9100
X13643Y8600
X14393Y8163
X14956Y8600
X15206Y7913
X15831Y7163
X16393Y6600
X16831Y7038
X17831Y6913
X19331Y7600
X17706Y8600
X17768Y9350
X16518Y8975
X16456Y9663
X16456Y10413
X17268Y10413
X17831Y10413
X18612Y10288
X20428Y9885
X20893Y9600
X21331Y9288
X22268Y9538
X23143Y10038
X24143Y9038
X23518Y8350
X22018Y8350
X24081Y7163
X23143Y5600
X24393Y4913
X26331Y4913
X28643Y4975
X27081Y6288
X28581Y6788
X29081Y7600
X30331Y7600
X30331Y10663
X29081Y10663
X29081Y13350
X30331Y13350
X32706Y13350
X32956Y11600
X34331Y11600
X35018Y13350
X35768Y14100
X35768Y15725
X34143Y15788
X33081Y15225
X30956Y15225
X28206Y14538
X26768Y14538
X26768Y15350
X26268Y16975
X25706Y16975
X25706Y17725
X26268Y17725
X27518Y17100
X29425Y17725
X29768Y18225
X31956Y19225
X33518Y19225
X35706Y18538
X35706Y17225
X34393Y17225
X35831Y21538
X31456Y21788
X29550Y24663
X27800Y24663
X25518Y22975
X25518Y22163
X24706Y22163
X26331Y22163
X24831Y17725
X24831Y16975
X23831Y16975
X22768Y16975
X21331Y15913
X22706Y15350
X24143Y15350
X21331Y13100
X23206Y12600
X24237Y12382
X24768Y12788
X24518Y11600
X23706Y11663
X22768Y11538
X21331Y11538
X19143Y12225
X19018Y11600
X19018Y13100
X19050Y15975
X14268Y20663
X13893Y21225
X14268Y22163
X30112Y28475
X35706Y29100
X35706Y24600
X37206Y11538
X37831Y9038
X41956Y8725
X46081Y6350
X37768Y4163
X21956Y4600
X21143Y4600
X18956Y4788
X18268Y5413
X17018Y4475
X15893Y5538
X15893Y6163
X14456Y4725
X12518Y6225
X11706Y5538
X13143Y6975
X16893Y8350
X21956Y6538
X9206Y5538
X7581Y5538
X7581Y6913
X7706Y8288
X9206Y8288
T03
X5831Y4413
X5831Y5413
X5831Y6413
X5831Y7413
X5831Y8413
X5831Y9413
X14268Y17913
X14268Y18913
X24768Y18475
X25768Y18475
X35068Y11100
X36468Y11100
X44393Y15600
X45393Y15600
X45393Y29100
X44393Y29100
T04
X45393Y24100
X46393Y24100
X46393Y23100
X45393Y23100
X45393Y22100
X46393Y22100
X46393Y21100
X45393Y21100
X45393Y20100
X46393Y20100
X42643Y15600
X42643Y14600
X42643Y13600
X38831Y18100
X38831Y19100
X38831Y20100
X33831Y21413
X32831Y21413
X32831Y22413
X33831Y22413
X33831Y23413
X32831Y23413
X32831Y24413
X33831Y24413
X33831Y25413
X32831Y25413
X32831Y26413
X33831Y26413
X33831Y27413
X32831Y27413
X32831Y28413
X33831Y28413
X29081Y28163
X28081Y28163
X27081Y28163
X26081Y28163
X25081Y28163
X24081Y28163
X23081Y28163
X22081Y28163
X22081Y29163
X23081Y29163
X24081Y29163
X25081Y29163
X26081Y29163
X27081Y29163
X28081Y29163
X29081Y29163
X17831Y29163
X16831Y29163
X15831Y29163
X14831Y29163
X13831Y29163
X12831Y29163
X11831Y29163
X10831Y29163
X10831Y28163
X11831Y28163
X12831Y28163
X13831Y28163
X14831Y28163
X15831Y28163
X16831Y28163
X17831Y28163
X7081Y28413
X6081Y28413
X6081Y27413
X7081Y27413
X7081Y26413
X6081Y26413
X6081Y25413
X7081Y25413
X7081Y24413
X6081Y24413
X6081Y23413
X7081Y23413
X7081Y22413
X6081Y22413
X6081Y21413
X7081Y21413
X7081Y17038
X6081Y17038
X6081Y16038
X7081Y16038
X7081Y15038
X6081Y15038
X6081Y14038
X7081Y14038
X7081Y13038
X6081Y13038
X24893Y10413
X25893Y10413
X25893Y9413
X24893Y9413
X24893Y8413
X25893Y8413
X25893Y7413
X24893Y7413
X24893Y6413
X25893Y6413
T05
X38831Y13600
X38831Y14600
X38831Y15600
X42643Y18100
X42643Y19100
X42643Y20100
X42643Y22600
X42643Y23600
X42643Y24600
X42643Y27100
X42643Y28100
X42643Y29100
X38831Y29100
X38831Y28100
X38831Y27100
X38831Y24600
X38831Y23600
X38831Y22600
T06
X38629Y7496
X36976Y7496
X35322Y7496
X33669Y7496
X32015Y7496
X32015Y5330
X33669Y5330
X35322Y5330
X36976Y5330
X38629Y5330
X40283Y5330
X41936Y5330
X43590Y5330
X45243Y5330
X46897Y5330
X46897Y7496
X45243Y7496
X43590Y7496
X41936Y7496
X40283Y7496
T07
X48747Y5511
X30165Y5511
M30
