G75*
G70*
%OFA0B0*%
%FSLAX24Y24*%
%IPPOS*%
%LPD*%
%AMOC8*
5,1,8,0,0,1.08239X$1,22.5*
%
%ADD10C,0.0000*%
%ADD11C,0.0060*%
%ADD12C,0.0030*%
%ADD13C,0.0040*%
%ADD14C,0.0050*%
%ADD15C,0.0020*%
%ADD16R,0.0300X0.4200*%
%ADD17R,0.0200X0.0750*%
%ADD18R,0.0200X0.0300*%
%ADD19C,0.0080*%
%ADD20C,0.0100*%
%ADD21C,0.0010*%
D10*
X004331Y003413D02*
X004331Y030783D01*
X051073Y030783D01*
X051073Y003413D01*
X004331Y003413D01*
X029574Y005511D02*
X029576Y005559D01*
X029582Y005607D01*
X029592Y005654D01*
X029605Y005700D01*
X029623Y005745D01*
X029643Y005789D01*
X029668Y005831D01*
X029696Y005870D01*
X029726Y005907D01*
X029760Y005941D01*
X029797Y005973D01*
X029835Y006002D01*
X029876Y006027D01*
X029919Y006049D01*
X029964Y006067D01*
X030010Y006081D01*
X030057Y006092D01*
X030105Y006099D01*
X030153Y006102D01*
X030201Y006101D01*
X030249Y006096D01*
X030297Y006087D01*
X030343Y006075D01*
X030388Y006058D01*
X030432Y006038D01*
X030474Y006015D01*
X030514Y005988D01*
X030552Y005958D01*
X030587Y005925D01*
X030619Y005889D01*
X030649Y005851D01*
X030675Y005810D01*
X030697Y005767D01*
X030717Y005723D01*
X030732Y005678D01*
X030744Y005631D01*
X030752Y005583D01*
X030756Y005535D01*
X030756Y005487D01*
X030752Y005439D01*
X030744Y005391D01*
X030732Y005344D01*
X030717Y005299D01*
X030697Y005255D01*
X030675Y005212D01*
X030649Y005171D01*
X030619Y005133D01*
X030587Y005097D01*
X030552Y005064D01*
X030514Y005034D01*
X030474Y005007D01*
X030432Y004984D01*
X030388Y004964D01*
X030343Y004947D01*
X030297Y004935D01*
X030249Y004926D01*
X030201Y004921D01*
X030153Y004920D01*
X030105Y004923D01*
X030057Y004930D01*
X030010Y004941D01*
X029964Y004955D01*
X029919Y004973D01*
X029876Y004995D01*
X029835Y005020D01*
X029797Y005049D01*
X029760Y005081D01*
X029726Y005115D01*
X029696Y005152D01*
X029668Y005191D01*
X029643Y005233D01*
X029623Y005277D01*
X029605Y005322D01*
X029592Y005368D01*
X029582Y005415D01*
X029576Y005463D01*
X029574Y005511D01*
X048156Y005511D02*
X048158Y005559D01*
X048164Y005607D01*
X048174Y005654D01*
X048187Y005700D01*
X048205Y005745D01*
X048225Y005789D01*
X048250Y005831D01*
X048278Y005870D01*
X048308Y005907D01*
X048342Y005941D01*
X048379Y005973D01*
X048417Y006002D01*
X048458Y006027D01*
X048501Y006049D01*
X048546Y006067D01*
X048592Y006081D01*
X048639Y006092D01*
X048687Y006099D01*
X048735Y006102D01*
X048783Y006101D01*
X048831Y006096D01*
X048879Y006087D01*
X048925Y006075D01*
X048970Y006058D01*
X049014Y006038D01*
X049056Y006015D01*
X049096Y005988D01*
X049134Y005958D01*
X049169Y005925D01*
X049201Y005889D01*
X049231Y005851D01*
X049257Y005810D01*
X049279Y005767D01*
X049299Y005723D01*
X049314Y005678D01*
X049326Y005631D01*
X049334Y005583D01*
X049338Y005535D01*
X049338Y005487D01*
X049334Y005439D01*
X049326Y005391D01*
X049314Y005344D01*
X049299Y005299D01*
X049279Y005255D01*
X049257Y005212D01*
X049231Y005171D01*
X049201Y005133D01*
X049169Y005097D01*
X049134Y005064D01*
X049096Y005034D01*
X049056Y005007D01*
X049014Y004984D01*
X048970Y004964D01*
X048925Y004947D01*
X048879Y004935D01*
X048831Y004926D01*
X048783Y004921D01*
X048735Y004920D01*
X048687Y004923D01*
X048639Y004930D01*
X048592Y004941D01*
X048546Y004955D01*
X048501Y004973D01*
X048458Y004995D01*
X048417Y005020D01*
X048379Y005049D01*
X048342Y005081D01*
X048308Y005115D01*
X048278Y005152D01*
X048250Y005191D01*
X048225Y005233D01*
X048205Y005277D01*
X048187Y005322D01*
X048174Y005368D01*
X048164Y005415D01*
X048158Y005463D01*
X048156Y005511D01*
D11*
X037118Y010650D02*
X036818Y010650D01*
X036968Y010800D02*
X036968Y010500D01*
X033768Y011100D02*
X033770Y011198D01*
X033778Y011296D01*
X033790Y011393D01*
X033806Y011490D01*
X033828Y011586D01*
X033854Y011681D01*
X033885Y011774D01*
X033920Y011865D01*
X033960Y011955D01*
X034004Y012043D01*
X034053Y012128D01*
X034105Y012211D01*
X034162Y012291D01*
X034222Y012369D01*
X034286Y012443D01*
X034354Y012514D01*
X034425Y012582D01*
X034499Y012646D01*
X034577Y012706D01*
X034657Y012763D01*
X034740Y012815D01*
X034825Y012864D01*
X034913Y012908D01*
X035003Y012948D01*
X035094Y012983D01*
X035187Y013014D01*
X035282Y013040D01*
X035378Y013062D01*
X035475Y013078D01*
X035572Y013090D01*
X035670Y013098D01*
X035768Y013100D01*
X035866Y013098D01*
X035964Y013090D01*
X036061Y013078D01*
X036158Y013062D01*
X036254Y013040D01*
X036349Y013014D01*
X036442Y012983D01*
X036533Y012948D01*
X036623Y012908D01*
X036711Y012864D01*
X036796Y012815D01*
X036879Y012763D01*
X036959Y012706D01*
X037037Y012646D01*
X037111Y012582D01*
X037182Y012514D01*
X037250Y012443D01*
X037314Y012369D01*
X037374Y012291D01*
X037431Y012211D01*
X037483Y012128D01*
X037532Y012043D01*
X037576Y011955D01*
X037616Y011865D01*
X037651Y011774D01*
X037682Y011681D01*
X037708Y011586D01*
X037730Y011490D01*
X037746Y011393D01*
X037758Y011296D01*
X037766Y011198D01*
X037768Y011100D01*
X037766Y011002D01*
X037758Y010904D01*
X037746Y010807D01*
X037730Y010710D01*
X037708Y010614D01*
X037682Y010519D01*
X037651Y010426D01*
X037616Y010335D01*
X037576Y010245D01*
X037532Y010157D01*
X037483Y010072D01*
X037431Y009989D01*
X037374Y009909D01*
X037314Y009831D01*
X037250Y009757D01*
X037182Y009686D01*
X037111Y009618D01*
X037037Y009554D01*
X036959Y009494D01*
X036879Y009437D01*
X036796Y009385D01*
X036711Y009336D01*
X036623Y009292D01*
X036533Y009252D01*
X036442Y009217D01*
X036349Y009186D01*
X036254Y009160D01*
X036158Y009138D01*
X036061Y009122D01*
X035964Y009110D01*
X035866Y009102D01*
X035768Y009100D01*
X035670Y009102D01*
X035572Y009110D01*
X035475Y009122D01*
X035378Y009138D01*
X035282Y009160D01*
X035187Y009186D01*
X035094Y009217D01*
X035003Y009252D01*
X034913Y009292D01*
X034825Y009336D01*
X034740Y009385D01*
X034657Y009437D01*
X034577Y009494D01*
X034499Y009554D01*
X034425Y009618D01*
X034354Y009686D01*
X034286Y009757D01*
X034222Y009831D01*
X034162Y009909D01*
X034105Y009989D01*
X034053Y010072D01*
X034004Y010157D01*
X033960Y010245D01*
X033920Y010335D01*
X033885Y010426D01*
X033854Y010519D01*
X033828Y010614D01*
X033806Y010710D01*
X033790Y010807D01*
X033778Y010904D01*
X033770Y011002D01*
X033768Y011100D01*
X038281Y012600D02*
X039431Y012650D01*
X039531Y012750D01*
X039531Y016450D01*
X039431Y016550D01*
X038281Y016600D01*
X038281Y017100D02*
X039431Y017150D01*
X039531Y017250D01*
X039531Y020950D01*
X039431Y021050D01*
X038281Y021100D01*
X038281Y021600D02*
X039431Y021650D01*
X039531Y021750D01*
X039531Y025450D01*
X039431Y025550D01*
X038281Y025600D01*
X038281Y026100D02*
X039431Y026150D01*
X039531Y026250D01*
X039531Y029950D01*
X039431Y030050D01*
X038281Y030100D01*
X042093Y030100D02*
X043243Y030050D01*
X043343Y029950D01*
X043343Y026250D01*
X043243Y026150D01*
X042093Y026100D01*
X042093Y025600D02*
X043243Y025550D01*
X043343Y025450D01*
X043343Y021750D01*
X043243Y021650D01*
X042093Y021600D01*
X042093Y021100D02*
X043243Y021050D01*
X043343Y020950D01*
X043343Y017250D01*
X043243Y017150D01*
X042093Y017100D01*
X042093Y016600D02*
X043243Y016550D01*
X043343Y016450D01*
X043343Y012750D01*
X043243Y012650D01*
X042093Y012600D01*
X043003Y012830D02*
X043005Y012850D01*
X043011Y012868D01*
X043020Y012886D01*
X043032Y012901D01*
X043047Y012913D01*
X043065Y012922D01*
X043083Y012928D01*
X043103Y012930D01*
X043123Y012928D01*
X043141Y012922D01*
X043159Y012913D01*
X043174Y012901D01*
X043186Y012886D01*
X043195Y012868D01*
X043201Y012850D01*
X043203Y012830D01*
X043201Y012810D01*
X043195Y012792D01*
X043186Y012774D01*
X043174Y012759D01*
X043159Y012747D01*
X043141Y012738D01*
X043123Y012732D01*
X043103Y012730D01*
X043083Y012732D01*
X043065Y012738D01*
X043047Y012747D01*
X043032Y012759D01*
X043020Y012774D01*
X043011Y012792D01*
X043005Y012810D01*
X043003Y012830D01*
X039191Y012830D02*
X039193Y012850D01*
X039199Y012868D01*
X039208Y012886D01*
X039220Y012901D01*
X039235Y012913D01*
X039253Y012922D01*
X039271Y012928D01*
X039291Y012930D01*
X039311Y012928D01*
X039329Y012922D01*
X039347Y012913D01*
X039362Y012901D01*
X039374Y012886D01*
X039383Y012868D01*
X039389Y012850D01*
X039391Y012830D01*
X039389Y012810D01*
X039383Y012792D01*
X039374Y012774D01*
X039362Y012759D01*
X039347Y012747D01*
X039329Y012738D01*
X039311Y012732D01*
X039291Y012730D01*
X039271Y012732D01*
X039253Y012738D01*
X039235Y012747D01*
X039220Y012759D01*
X039208Y012774D01*
X039199Y012792D01*
X039193Y012810D01*
X039191Y012830D01*
X044093Y016100D02*
X044243Y016100D01*
X044243Y016250D01*
X044243Y016100D02*
X044393Y016100D01*
X044243Y016100D02*
X044243Y015950D01*
X043793Y015600D02*
X043795Y015666D01*
X043801Y015731D01*
X043811Y015796D01*
X043824Y015861D01*
X043842Y015924D01*
X043863Y015987D01*
X043888Y016047D01*
X043917Y016107D01*
X043949Y016164D01*
X043984Y016220D01*
X044023Y016273D01*
X044065Y016324D01*
X044109Y016372D01*
X044157Y016417D01*
X044207Y016460D01*
X044260Y016499D01*
X044315Y016536D01*
X044372Y016569D01*
X044431Y016598D01*
X044491Y016624D01*
X044553Y016646D01*
X044616Y016665D01*
X044680Y016679D01*
X044745Y016690D01*
X044811Y016697D01*
X044877Y016700D01*
X044942Y016699D01*
X045008Y016694D01*
X045073Y016685D01*
X045138Y016672D01*
X045201Y016656D01*
X045264Y016636D01*
X045325Y016611D01*
X045385Y016584D01*
X045443Y016553D01*
X045499Y016518D01*
X045553Y016480D01*
X045604Y016439D01*
X045653Y016395D01*
X045699Y016348D01*
X045743Y016299D01*
X045783Y016247D01*
X045820Y016192D01*
X045854Y016136D01*
X045884Y016077D01*
X045911Y016017D01*
X045934Y015956D01*
X045953Y015893D01*
X045969Y015829D01*
X045981Y015764D01*
X045989Y015699D01*
X045993Y015633D01*
X045993Y015567D01*
X045989Y015501D01*
X045981Y015436D01*
X045969Y015371D01*
X045953Y015307D01*
X045934Y015244D01*
X045911Y015183D01*
X045884Y015123D01*
X045854Y015064D01*
X045820Y015008D01*
X045783Y014953D01*
X045743Y014901D01*
X045699Y014852D01*
X045653Y014805D01*
X045604Y014761D01*
X045553Y014720D01*
X045499Y014682D01*
X045443Y014647D01*
X045385Y014616D01*
X045325Y014589D01*
X045264Y014564D01*
X045201Y014544D01*
X045138Y014528D01*
X045073Y014515D01*
X045008Y014506D01*
X044942Y014501D01*
X044877Y014500D01*
X044811Y014503D01*
X044745Y014510D01*
X044680Y014521D01*
X044616Y014535D01*
X044553Y014554D01*
X044491Y014576D01*
X044431Y014602D01*
X044372Y014631D01*
X044315Y014664D01*
X044260Y014701D01*
X044207Y014740D01*
X044157Y014783D01*
X044109Y014828D01*
X044065Y014876D01*
X044023Y014927D01*
X043984Y014980D01*
X043949Y015036D01*
X043917Y015093D01*
X043888Y015153D01*
X043863Y015213D01*
X043842Y015276D01*
X043824Y015339D01*
X043811Y015404D01*
X043801Y015469D01*
X043795Y015534D01*
X043793Y015600D01*
X043003Y017330D02*
X043005Y017350D01*
X043011Y017368D01*
X043020Y017386D01*
X043032Y017401D01*
X043047Y017413D01*
X043065Y017422D01*
X043083Y017428D01*
X043103Y017430D01*
X043123Y017428D01*
X043141Y017422D01*
X043159Y017413D01*
X043174Y017401D01*
X043186Y017386D01*
X043195Y017368D01*
X043201Y017350D01*
X043203Y017330D01*
X043201Y017310D01*
X043195Y017292D01*
X043186Y017274D01*
X043174Y017259D01*
X043159Y017247D01*
X043141Y017238D01*
X043123Y017232D01*
X043103Y017230D01*
X043083Y017232D01*
X043065Y017238D01*
X043047Y017247D01*
X043032Y017259D01*
X043020Y017274D01*
X043011Y017292D01*
X043005Y017310D01*
X043003Y017330D01*
X039191Y017330D02*
X039193Y017350D01*
X039199Y017368D01*
X039208Y017386D01*
X039220Y017401D01*
X039235Y017413D01*
X039253Y017422D01*
X039271Y017428D01*
X039291Y017430D01*
X039311Y017428D01*
X039329Y017422D01*
X039347Y017413D01*
X039362Y017401D01*
X039374Y017386D01*
X039383Y017368D01*
X039389Y017350D01*
X039391Y017330D01*
X039389Y017310D01*
X039383Y017292D01*
X039374Y017274D01*
X039362Y017259D01*
X039347Y017247D01*
X039329Y017238D01*
X039311Y017232D01*
X039291Y017230D01*
X039271Y017232D01*
X039253Y017238D01*
X039235Y017247D01*
X039220Y017259D01*
X039208Y017274D01*
X039199Y017292D01*
X039193Y017310D01*
X039191Y017330D01*
X039191Y021830D02*
X039193Y021850D01*
X039199Y021868D01*
X039208Y021886D01*
X039220Y021901D01*
X039235Y021913D01*
X039253Y021922D01*
X039271Y021928D01*
X039291Y021930D01*
X039311Y021928D01*
X039329Y021922D01*
X039347Y021913D01*
X039362Y021901D01*
X039374Y021886D01*
X039383Y021868D01*
X039389Y021850D01*
X039391Y021830D01*
X039389Y021810D01*
X039383Y021792D01*
X039374Y021774D01*
X039362Y021759D01*
X039347Y021747D01*
X039329Y021738D01*
X039311Y021732D01*
X039291Y021730D01*
X039271Y021732D01*
X039253Y021738D01*
X039235Y021747D01*
X039220Y021759D01*
X039208Y021774D01*
X039199Y021792D01*
X039193Y021810D01*
X039191Y021830D01*
X043003Y021830D02*
X043005Y021850D01*
X043011Y021868D01*
X043020Y021886D01*
X043032Y021901D01*
X043047Y021913D01*
X043065Y021922D01*
X043083Y021928D01*
X043103Y021930D01*
X043123Y021928D01*
X043141Y021922D01*
X043159Y021913D01*
X043174Y021901D01*
X043186Y021886D01*
X043195Y021868D01*
X043201Y021850D01*
X043203Y021830D01*
X043201Y021810D01*
X043195Y021792D01*
X043186Y021774D01*
X043174Y021759D01*
X043159Y021747D01*
X043141Y021738D01*
X043123Y021732D01*
X043103Y021730D01*
X043083Y021732D01*
X043065Y021738D01*
X043047Y021747D01*
X043032Y021759D01*
X043020Y021774D01*
X043011Y021792D01*
X043005Y021810D01*
X043003Y021830D01*
X043003Y026330D02*
X043005Y026350D01*
X043011Y026368D01*
X043020Y026386D01*
X043032Y026401D01*
X043047Y026413D01*
X043065Y026422D01*
X043083Y026428D01*
X043103Y026430D01*
X043123Y026428D01*
X043141Y026422D01*
X043159Y026413D01*
X043174Y026401D01*
X043186Y026386D01*
X043195Y026368D01*
X043201Y026350D01*
X043203Y026330D01*
X043201Y026310D01*
X043195Y026292D01*
X043186Y026274D01*
X043174Y026259D01*
X043159Y026247D01*
X043141Y026238D01*
X043123Y026232D01*
X043103Y026230D01*
X043083Y026232D01*
X043065Y026238D01*
X043047Y026247D01*
X043032Y026259D01*
X043020Y026274D01*
X043011Y026292D01*
X043005Y026310D01*
X043003Y026330D01*
X039191Y026330D02*
X039193Y026350D01*
X039199Y026368D01*
X039208Y026386D01*
X039220Y026401D01*
X039235Y026413D01*
X039253Y026422D01*
X039271Y026428D01*
X039291Y026430D01*
X039311Y026428D01*
X039329Y026422D01*
X039347Y026413D01*
X039362Y026401D01*
X039374Y026386D01*
X039383Y026368D01*
X039389Y026350D01*
X039391Y026330D01*
X039389Y026310D01*
X039383Y026292D01*
X039374Y026274D01*
X039362Y026259D01*
X039347Y026247D01*
X039329Y026238D01*
X039311Y026232D01*
X039291Y026230D01*
X039271Y026232D01*
X039253Y026238D01*
X039235Y026247D01*
X039220Y026259D01*
X039208Y026274D01*
X039199Y026292D01*
X039193Y026310D01*
X039191Y026330D01*
X044093Y029600D02*
X044243Y029600D01*
X044243Y029750D01*
X044243Y029600D02*
X044393Y029600D01*
X044243Y029600D02*
X044243Y029450D01*
X043793Y029100D02*
X043795Y029166D01*
X043801Y029231D01*
X043811Y029296D01*
X043824Y029361D01*
X043842Y029424D01*
X043863Y029487D01*
X043888Y029547D01*
X043917Y029607D01*
X043949Y029664D01*
X043984Y029720D01*
X044023Y029773D01*
X044065Y029824D01*
X044109Y029872D01*
X044157Y029917D01*
X044207Y029960D01*
X044260Y029999D01*
X044315Y030036D01*
X044372Y030069D01*
X044431Y030098D01*
X044491Y030124D01*
X044553Y030146D01*
X044616Y030165D01*
X044680Y030179D01*
X044745Y030190D01*
X044811Y030197D01*
X044877Y030200D01*
X044942Y030199D01*
X045008Y030194D01*
X045073Y030185D01*
X045138Y030172D01*
X045201Y030156D01*
X045264Y030136D01*
X045325Y030111D01*
X045385Y030084D01*
X045443Y030053D01*
X045499Y030018D01*
X045553Y029980D01*
X045604Y029939D01*
X045653Y029895D01*
X045699Y029848D01*
X045743Y029799D01*
X045783Y029747D01*
X045820Y029692D01*
X045854Y029636D01*
X045884Y029577D01*
X045911Y029517D01*
X045934Y029456D01*
X045953Y029393D01*
X045969Y029329D01*
X045981Y029264D01*
X045989Y029199D01*
X045993Y029133D01*
X045993Y029067D01*
X045989Y029001D01*
X045981Y028936D01*
X045969Y028871D01*
X045953Y028807D01*
X045934Y028744D01*
X045911Y028683D01*
X045884Y028623D01*
X045854Y028564D01*
X045820Y028508D01*
X045783Y028453D01*
X045743Y028401D01*
X045699Y028352D01*
X045653Y028305D01*
X045604Y028261D01*
X045553Y028220D01*
X045499Y028182D01*
X045443Y028147D01*
X045385Y028116D01*
X045325Y028089D01*
X045264Y028064D01*
X045201Y028044D01*
X045138Y028028D01*
X045073Y028015D01*
X045008Y028006D01*
X044942Y028001D01*
X044877Y028000D01*
X044811Y028003D01*
X044745Y028010D01*
X044680Y028021D01*
X044616Y028035D01*
X044553Y028054D01*
X044491Y028076D01*
X044431Y028102D01*
X044372Y028131D01*
X044315Y028164D01*
X044260Y028201D01*
X044207Y028240D01*
X044157Y028283D01*
X044109Y028328D01*
X044065Y028376D01*
X044023Y028427D01*
X043984Y028480D01*
X043949Y028536D01*
X043917Y028593D01*
X043888Y028653D01*
X043863Y028713D01*
X043842Y028776D01*
X043824Y028839D01*
X043811Y028904D01*
X043801Y028969D01*
X043795Y029034D01*
X043793Y029100D01*
X030388Y019475D02*
X029148Y019475D01*
X029125Y019473D01*
X029102Y019468D01*
X029080Y019459D01*
X029060Y019446D01*
X029042Y019431D01*
X029027Y019413D01*
X029014Y019393D01*
X029005Y019371D01*
X029000Y019348D01*
X028998Y019325D01*
X030388Y019475D02*
X030411Y019473D01*
X030434Y019468D01*
X030456Y019459D01*
X030476Y019446D01*
X030494Y019431D01*
X030509Y019413D01*
X030522Y019393D01*
X030531Y019371D01*
X030536Y019348D01*
X030538Y019325D01*
X026068Y017975D02*
X025918Y017975D01*
X025918Y017825D01*
X025918Y017975D02*
X025768Y017975D01*
X025918Y017975D02*
X025918Y018125D01*
X024168Y018475D02*
X024170Y018541D01*
X024176Y018606D01*
X024186Y018671D01*
X024199Y018736D01*
X024217Y018799D01*
X024238Y018862D01*
X024263Y018922D01*
X024292Y018982D01*
X024324Y019039D01*
X024359Y019095D01*
X024398Y019148D01*
X024440Y019199D01*
X024484Y019247D01*
X024532Y019292D01*
X024582Y019335D01*
X024635Y019374D01*
X024690Y019411D01*
X024747Y019444D01*
X024806Y019473D01*
X024866Y019499D01*
X024928Y019521D01*
X024991Y019540D01*
X025055Y019554D01*
X025120Y019565D01*
X025186Y019572D01*
X025252Y019575D01*
X025317Y019574D01*
X025383Y019569D01*
X025448Y019560D01*
X025513Y019547D01*
X025576Y019531D01*
X025639Y019511D01*
X025700Y019486D01*
X025760Y019459D01*
X025818Y019428D01*
X025874Y019393D01*
X025928Y019355D01*
X025979Y019314D01*
X026028Y019270D01*
X026074Y019223D01*
X026118Y019174D01*
X026158Y019122D01*
X026195Y019067D01*
X026229Y019011D01*
X026259Y018952D01*
X026286Y018892D01*
X026309Y018831D01*
X026328Y018768D01*
X026344Y018704D01*
X026356Y018639D01*
X026364Y018574D01*
X026368Y018508D01*
X026368Y018442D01*
X026364Y018376D01*
X026356Y018311D01*
X026344Y018246D01*
X026328Y018182D01*
X026309Y018119D01*
X026286Y018058D01*
X026259Y017998D01*
X026229Y017939D01*
X026195Y017883D01*
X026158Y017828D01*
X026118Y017776D01*
X026074Y017727D01*
X026028Y017680D01*
X025979Y017636D01*
X025928Y017595D01*
X025874Y017557D01*
X025818Y017522D01*
X025760Y017491D01*
X025700Y017464D01*
X025639Y017439D01*
X025576Y017419D01*
X025513Y017403D01*
X025448Y017390D01*
X025383Y017381D01*
X025317Y017376D01*
X025252Y017375D01*
X025186Y017378D01*
X025120Y017385D01*
X025055Y017396D01*
X024991Y017410D01*
X024928Y017429D01*
X024866Y017451D01*
X024806Y017477D01*
X024747Y017506D01*
X024690Y017539D01*
X024635Y017576D01*
X024582Y017615D01*
X024532Y017658D01*
X024484Y017703D01*
X024440Y017751D01*
X024398Y017802D01*
X024359Y017855D01*
X024324Y017911D01*
X024292Y017968D01*
X024263Y018028D01*
X024238Y018088D01*
X024217Y018151D01*
X024199Y018214D01*
X024186Y018279D01*
X024176Y018344D01*
X024170Y018409D01*
X024168Y018475D01*
X028998Y015625D02*
X029000Y015602D01*
X029005Y015579D01*
X029014Y015557D01*
X029027Y015537D01*
X029042Y015519D01*
X029060Y015504D01*
X029080Y015491D01*
X029102Y015482D01*
X029125Y015477D01*
X029148Y015475D01*
X029568Y015475D01*
X029968Y015475D01*
X030388Y015475D01*
X030411Y015477D01*
X030434Y015482D01*
X030456Y015491D01*
X030476Y015504D01*
X030494Y015519D01*
X030509Y015537D01*
X030522Y015557D01*
X030531Y015579D01*
X030536Y015602D01*
X030538Y015625D01*
X029968Y015475D02*
X029966Y015502D01*
X029961Y015529D01*
X029951Y015555D01*
X029939Y015579D01*
X029923Y015601D01*
X029905Y015621D01*
X029883Y015638D01*
X029860Y015653D01*
X029835Y015663D01*
X029809Y015671D01*
X029782Y015675D01*
X029754Y015675D01*
X029727Y015671D01*
X029701Y015663D01*
X029676Y015653D01*
X029653Y015638D01*
X029631Y015621D01*
X029613Y015601D01*
X029597Y015579D01*
X029585Y015555D01*
X029575Y015529D01*
X029570Y015502D01*
X029568Y015475D01*
X027018Y015533D02*
X027018Y014293D01*
X027016Y014270D01*
X027011Y014247D01*
X027002Y014225D01*
X026989Y014205D01*
X026974Y014187D01*
X026956Y014172D01*
X026936Y014159D01*
X026914Y014150D01*
X026891Y014145D01*
X026868Y014143D01*
X027018Y015533D02*
X027016Y015556D01*
X027011Y015579D01*
X027002Y015601D01*
X026989Y015621D01*
X026974Y015639D01*
X026956Y015654D01*
X026936Y015667D01*
X026914Y015676D01*
X026891Y015681D01*
X026868Y015683D01*
X023168Y015683D02*
X023145Y015681D01*
X023122Y015676D01*
X023100Y015667D01*
X023080Y015654D01*
X023062Y015639D01*
X023047Y015621D01*
X023034Y015601D01*
X023025Y015579D01*
X023020Y015556D01*
X023018Y015533D01*
X023018Y015113D01*
X023018Y014713D01*
X023018Y014293D01*
X023020Y014270D01*
X023025Y014247D01*
X023034Y014225D01*
X023047Y014205D01*
X023062Y014187D01*
X023080Y014172D01*
X023100Y014159D01*
X023122Y014150D01*
X023145Y014145D01*
X023168Y014143D01*
X023018Y014713D02*
X023045Y014715D01*
X023072Y014720D01*
X023098Y014730D01*
X023122Y014742D01*
X023144Y014758D01*
X023164Y014776D01*
X023181Y014798D01*
X023196Y014821D01*
X023206Y014846D01*
X023214Y014872D01*
X023218Y014899D01*
X023218Y014927D01*
X023214Y014954D01*
X023206Y014980D01*
X023196Y015005D01*
X023181Y015028D01*
X023164Y015050D01*
X023144Y015068D01*
X023122Y015084D01*
X023098Y015096D01*
X023072Y015106D01*
X023045Y015111D01*
X023018Y015113D01*
X018836Y010793D02*
X016076Y010793D01*
X016076Y008173D01*
X016216Y008033D01*
X018836Y008033D01*
X018836Y010793D01*
X016235Y008333D02*
X016237Y008356D01*
X016243Y008379D01*
X016252Y008400D01*
X016265Y008420D01*
X016281Y008437D01*
X016299Y008451D01*
X016319Y008462D01*
X016341Y008470D01*
X016364Y008474D01*
X016388Y008474D01*
X016411Y008470D01*
X016433Y008462D01*
X016453Y008451D01*
X016471Y008437D01*
X016487Y008420D01*
X016500Y008400D01*
X016509Y008379D01*
X016515Y008356D01*
X016517Y008333D01*
X016515Y008310D01*
X016509Y008287D01*
X016500Y008266D01*
X016487Y008246D01*
X016471Y008229D01*
X016453Y008215D01*
X016433Y008204D01*
X016411Y008196D01*
X016388Y008192D01*
X016364Y008192D01*
X016341Y008196D01*
X016319Y008204D01*
X016299Y008215D01*
X016281Y008229D01*
X016265Y008246D01*
X016252Y008266D01*
X016243Y008287D01*
X016237Y008310D01*
X016235Y008333D01*
X006331Y008013D02*
X006331Y008813D01*
X006231Y008913D01*
X006331Y009013D01*
X006331Y009913D01*
X005331Y009913D01*
X005331Y009013D01*
X005431Y008913D01*
X005331Y008813D01*
X005331Y008013D01*
X005431Y007913D01*
X005331Y007813D01*
X005331Y007013D01*
X005431Y006913D01*
X005331Y006813D01*
X005331Y006013D01*
X005431Y005913D01*
X005331Y005813D01*
X005331Y005013D01*
X005431Y004913D01*
X005331Y004813D01*
X005331Y003913D01*
X006331Y003913D01*
X006331Y004813D01*
X006231Y004913D01*
X006331Y005013D01*
X006331Y005813D01*
X006231Y005913D01*
X006331Y006013D01*
X006331Y006813D01*
X006231Y006913D01*
X006331Y007013D01*
X006331Y007813D01*
X006231Y007913D01*
X006331Y008013D01*
X013168Y018413D02*
X013170Y018479D01*
X013176Y018544D01*
X013186Y018609D01*
X013199Y018674D01*
X013217Y018737D01*
X013238Y018800D01*
X013263Y018860D01*
X013292Y018920D01*
X013324Y018977D01*
X013359Y019033D01*
X013398Y019086D01*
X013440Y019137D01*
X013484Y019185D01*
X013532Y019230D01*
X013582Y019273D01*
X013635Y019312D01*
X013690Y019349D01*
X013747Y019382D01*
X013806Y019411D01*
X013866Y019437D01*
X013928Y019459D01*
X013991Y019478D01*
X014055Y019492D01*
X014120Y019503D01*
X014186Y019510D01*
X014252Y019513D01*
X014317Y019512D01*
X014383Y019507D01*
X014448Y019498D01*
X014513Y019485D01*
X014576Y019469D01*
X014639Y019449D01*
X014700Y019424D01*
X014760Y019397D01*
X014818Y019366D01*
X014874Y019331D01*
X014928Y019293D01*
X014979Y019252D01*
X015028Y019208D01*
X015074Y019161D01*
X015118Y019112D01*
X015158Y019060D01*
X015195Y019005D01*
X015229Y018949D01*
X015259Y018890D01*
X015286Y018830D01*
X015309Y018769D01*
X015328Y018706D01*
X015344Y018642D01*
X015356Y018577D01*
X015364Y018512D01*
X015368Y018446D01*
X015368Y018380D01*
X015364Y018314D01*
X015356Y018249D01*
X015344Y018184D01*
X015328Y018120D01*
X015309Y018057D01*
X015286Y017996D01*
X015259Y017936D01*
X015229Y017877D01*
X015195Y017821D01*
X015158Y017766D01*
X015118Y017714D01*
X015074Y017665D01*
X015028Y017618D01*
X014979Y017574D01*
X014928Y017533D01*
X014874Y017495D01*
X014818Y017460D01*
X014760Y017429D01*
X014700Y017402D01*
X014639Y017377D01*
X014576Y017357D01*
X014513Y017341D01*
X014448Y017328D01*
X014383Y017319D01*
X014317Y017314D01*
X014252Y017313D01*
X014186Y017316D01*
X014120Y017323D01*
X014055Y017334D01*
X013991Y017348D01*
X013928Y017367D01*
X013866Y017389D01*
X013806Y017415D01*
X013747Y017444D01*
X013690Y017477D01*
X013635Y017514D01*
X013582Y017553D01*
X013532Y017596D01*
X013484Y017641D01*
X013440Y017689D01*
X013398Y017740D01*
X013359Y017793D01*
X013324Y017849D01*
X013292Y017906D01*
X013263Y017966D01*
X013238Y018026D01*
X013217Y018089D01*
X013199Y018152D01*
X013186Y018217D01*
X013176Y018282D01*
X013170Y018347D01*
X013168Y018413D01*
X014618Y019063D02*
X014768Y019063D01*
X014918Y019063D01*
X014768Y019063D02*
X014768Y018913D01*
X014768Y019063D02*
X014768Y019213D01*
D12*
X015441Y009023D02*
X015441Y008829D01*
X015441Y008926D02*
X015151Y008926D01*
X015247Y008829D01*
X015199Y008728D02*
X015151Y008680D01*
X015151Y008583D01*
X015199Y008534D01*
X015393Y008534D01*
X015441Y008583D01*
X015441Y008680D01*
X015393Y008728D01*
X015441Y008435D02*
X015441Y008338D01*
X015441Y008386D02*
X015151Y008386D01*
X015151Y008338D02*
X015151Y008435D01*
D13*
X016976Y007817D02*
X016976Y007510D01*
X017053Y007433D01*
X017206Y007433D01*
X017283Y007510D01*
X017436Y007663D02*
X017667Y007893D01*
X017667Y007433D01*
X017743Y007663D02*
X017436Y007663D01*
X017283Y007817D02*
X017206Y007893D01*
X017053Y007893D01*
X016976Y007817D01*
X020101Y007129D02*
X020101Y006822D01*
X020178Y006745D01*
X020331Y006745D01*
X020408Y006822D01*
X020561Y006745D02*
X020868Y007052D01*
X020868Y007129D01*
X020792Y007206D01*
X020638Y007206D01*
X020561Y007129D01*
X020408Y007129D02*
X020331Y007206D01*
X020178Y007206D01*
X020101Y007129D01*
X020561Y006745D02*
X020868Y006745D01*
X022163Y006643D02*
X022393Y006643D01*
X022317Y006797D01*
X022317Y006874D01*
X022393Y006950D01*
X022547Y006950D01*
X022623Y006874D01*
X022623Y006720D01*
X022547Y006643D01*
X022547Y006490D02*
X022623Y006413D01*
X022623Y006260D01*
X022547Y006183D01*
X022240Y006183D01*
X022163Y006260D01*
X022163Y006413D01*
X022240Y006490D01*
X022163Y006643D02*
X022163Y006950D01*
X023190Y005968D02*
X023113Y005891D01*
X023113Y005737D01*
X023190Y005661D01*
X023190Y005507D02*
X023343Y005507D01*
X023420Y005431D01*
X023420Y005200D01*
X023420Y005047D02*
X023497Y005047D01*
X023573Y004970D01*
X023573Y004817D01*
X023497Y004740D01*
X023573Y004586D02*
X023573Y004433D01*
X023573Y004510D02*
X023113Y004510D01*
X023113Y004586D02*
X023113Y004433D01*
X023190Y004740D02*
X023267Y004740D01*
X023343Y004817D01*
X023343Y004970D01*
X023420Y005047D01*
X023573Y005200D02*
X023113Y005200D01*
X023113Y005431D01*
X023190Y005507D01*
X023573Y005661D02*
X023267Y005968D01*
X023190Y005968D01*
X023573Y005968D02*
X023573Y005661D01*
X023190Y005047D02*
X023113Y004970D01*
X023113Y004817D01*
X023190Y004740D01*
X020368Y003683D02*
X020061Y003683D01*
X020215Y003683D02*
X020215Y004143D01*
X020061Y003990D01*
X019908Y004067D02*
X019831Y004143D01*
X019678Y004143D01*
X019601Y004067D01*
X019601Y003760D01*
X019678Y003683D01*
X019831Y003683D01*
X019908Y003760D01*
X018621Y005058D02*
X018467Y005058D01*
X018391Y005135D01*
X018237Y005135D02*
X018160Y005058D01*
X018007Y005058D01*
X017930Y005135D01*
X017930Y005442D01*
X018007Y005518D01*
X018160Y005518D01*
X018237Y005442D01*
X018391Y005442D02*
X018467Y005518D01*
X018621Y005518D01*
X018698Y005442D01*
X018698Y005365D01*
X018621Y005288D01*
X018698Y005211D01*
X018698Y005135D01*
X018621Y005058D01*
X018621Y005288D02*
X018544Y005288D01*
X012954Y008635D02*
X012954Y008942D01*
X012877Y009018D01*
X012723Y009018D01*
X012647Y008942D01*
X012647Y008865D01*
X012723Y008788D01*
X012954Y008788D01*
X012954Y008635D02*
X012877Y008558D01*
X012723Y008558D01*
X012647Y008635D01*
X012493Y008558D02*
X012186Y008558D01*
X012340Y008558D02*
X012340Y009018D01*
X012186Y008865D01*
X012033Y008942D02*
X011956Y009018D01*
X011803Y009018D01*
X011726Y008942D01*
X011726Y008635D01*
X011803Y008558D01*
X011956Y008558D01*
X012033Y008635D01*
X010925Y008567D02*
X010848Y008643D01*
X010695Y008643D01*
X010618Y008567D01*
X010465Y008567D02*
X010388Y008643D01*
X010235Y008643D01*
X010158Y008567D01*
X010158Y008260D01*
X010235Y008183D01*
X010388Y008183D01*
X010465Y008260D01*
X010618Y008183D02*
X010925Y008490D01*
X010925Y008567D01*
X010925Y008183D02*
X010618Y008183D01*
X010004Y008183D02*
X009851Y008183D01*
X009928Y008183D02*
X009928Y008643D01*
X010004Y008643D02*
X009851Y008643D01*
X008859Y007530D02*
X008936Y007453D01*
X008936Y007299D01*
X008859Y007223D01*
X008783Y007223D01*
X008706Y007299D01*
X008706Y007453D01*
X008783Y007530D01*
X008859Y007530D01*
X008706Y007453D02*
X008629Y007530D01*
X008552Y007530D01*
X008476Y007453D01*
X008476Y007299D01*
X008552Y007223D01*
X008629Y007223D01*
X008706Y007299D01*
X008936Y007069D02*
X008936Y006762D01*
X008936Y006916D02*
X008476Y006916D01*
X008629Y006762D01*
X008552Y006609D02*
X008476Y006532D01*
X008476Y006379D01*
X008552Y006302D01*
X008859Y006302D01*
X008936Y006379D01*
X008936Y006532D01*
X008859Y006609D01*
X004761Y011058D02*
X004301Y011365D01*
X004301Y011518D02*
X004301Y011825D01*
X004377Y011825D01*
X004684Y011518D01*
X004761Y011518D01*
X004761Y011365D02*
X004301Y011058D01*
X012726Y018739D02*
X012726Y018970D01*
X012802Y019046D01*
X012956Y019046D01*
X013033Y018970D01*
X013033Y018739D01*
X013186Y018739D02*
X012726Y018739D01*
X013033Y018893D02*
X013186Y019046D01*
X013186Y019200D02*
X012879Y019507D01*
X012802Y019507D01*
X012726Y019430D01*
X012726Y019276D01*
X012802Y019200D01*
X013186Y019200D02*
X013186Y019507D01*
X012956Y019660D02*
X012956Y019967D01*
X013186Y019890D02*
X012726Y019890D01*
X012956Y019660D01*
X013490Y021075D02*
X013797Y021075D01*
X013873Y021151D01*
X013873Y021305D01*
X013797Y021382D01*
X013797Y021535D02*
X013873Y021612D01*
X013873Y021765D01*
X013797Y021842D01*
X013720Y021842D01*
X013643Y021765D01*
X013643Y021535D01*
X013797Y021535D01*
X013643Y021535D02*
X013490Y021689D01*
X013413Y021842D01*
X013490Y021382D02*
X013413Y021305D01*
X013413Y021151D01*
X013490Y021075D01*
X017851Y019828D02*
X017851Y019674D01*
X017927Y019598D01*
X017927Y019444D02*
X017851Y019367D01*
X017851Y019214D01*
X017927Y019137D01*
X017927Y018984D02*
X018081Y018984D01*
X018158Y018907D01*
X018158Y018677D01*
X018311Y018677D02*
X017851Y018677D01*
X017851Y018907D01*
X017927Y018984D01*
X018158Y018830D02*
X018311Y018984D01*
X018311Y019137D02*
X018004Y019444D01*
X017927Y019444D01*
X018081Y019751D02*
X018081Y019828D01*
X018158Y019905D01*
X018234Y019905D01*
X018311Y019828D01*
X018311Y019674D01*
X018234Y019598D01*
X018311Y019444D02*
X018311Y019137D01*
X018081Y019828D02*
X018004Y019905D01*
X017927Y019905D01*
X017851Y019828D01*
X019115Y021075D02*
X019422Y021075D01*
X019498Y021151D01*
X019498Y021305D01*
X019422Y021382D01*
X019422Y021535D02*
X019345Y021535D01*
X019268Y021612D01*
X019268Y021765D01*
X019345Y021842D01*
X019422Y021842D01*
X019498Y021765D01*
X019498Y021612D01*
X019422Y021535D01*
X019268Y021612D02*
X019192Y021535D01*
X019115Y021535D01*
X019038Y021612D01*
X019038Y021765D01*
X019115Y021842D01*
X019192Y021842D01*
X019268Y021765D01*
X019115Y021382D02*
X019038Y021305D01*
X019038Y021151D01*
X019115Y021075D01*
X023101Y019828D02*
X023101Y019674D01*
X023177Y019598D01*
X023177Y019444D02*
X023101Y019367D01*
X023101Y019214D01*
X023177Y019137D01*
X023177Y018984D02*
X023331Y018984D01*
X023408Y018907D01*
X023408Y018677D01*
X023561Y018677D02*
X023101Y018677D01*
X023101Y018907D01*
X023177Y018984D01*
X023408Y018830D02*
X023561Y018984D01*
X023561Y019137D02*
X023254Y019444D01*
X023177Y019444D01*
X023561Y019444D02*
X023561Y019137D01*
X023561Y019598D02*
X023254Y019905D01*
X023177Y019905D01*
X023101Y019828D01*
X023561Y019905D02*
X023561Y019598D01*
X024302Y021114D02*
X024609Y021114D01*
X024686Y021191D01*
X024686Y021345D01*
X024609Y021421D01*
X024686Y021575D02*
X024686Y021882D01*
X024686Y021728D02*
X024226Y021728D01*
X024379Y021575D01*
X024302Y021421D02*
X024226Y021345D01*
X024226Y021191D01*
X024302Y021114D01*
X024302Y022035D02*
X024226Y022112D01*
X024226Y022265D01*
X024302Y022342D01*
X024609Y022035D01*
X024686Y022112D01*
X024686Y022265D01*
X024609Y022342D01*
X024302Y022342D01*
X024302Y022035D02*
X024609Y022035D01*
X027726Y022112D02*
X027802Y022035D01*
X027726Y022112D02*
X027726Y022265D01*
X027802Y022342D01*
X027879Y022342D01*
X028186Y022035D01*
X028186Y022342D01*
X028186Y021882D02*
X028186Y021575D01*
X028186Y021728D02*
X027726Y021728D01*
X027879Y021575D01*
X027802Y021421D02*
X027726Y021345D01*
X027726Y021191D01*
X027802Y021114D01*
X028109Y021114D01*
X028186Y021191D01*
X028186Y021345D01*
X028109Y021421D01*
X028038Y018717D02*
X028115Y018564D01*
X028268Y018410D01*
X028268Y018640D01*
X028345Y018717D01*
X028422Y018717D01*
X028498Y018640D01*
X028498Y018487D01*
X028422Y018410D01*
X028268Y018410D01*
X028498Y018257D02*
X028498Y017950D01*
X028498Y018103D02*
X028038Y018103D01*
X028192Y017950D01*
X028115Y017796D02*
X028038Y017720D01*
X028038Y017566D01*
X028115Y017489D01*
X028422Y017489D01*
X028498Y017566D01*
X028498Y017720D01*
X028422Y017796D01*
X026768Y015661D02*
X026768Y015354D01*
X026538Y015584D01*
X026998Y015584D01*
X026998Y015200D02*
X026998Y014893D01*
X026998Y015047D02*
X026538Y015047D01*
X026692Y014893D01*
X026615Y014740D02*
X026538Y014663D01*
X026538Y014510D01*
X026615Y014433D01*
X026922Y014433D01*
X026998Y014510D01*
X026998Y014663D01*
X026922Y014740D01*
X026107Y012268D02*
X026107Y011808D01*
X026260Y011808D02*
X025953Y011808D01*
X025800Y011808D02*
X025646Y011961D01*
X025723Y011961D02*
X025493Y011961D01*
X025493Y011808D02*
X025493Y012268D01*
X025723Y012268D01*
X025800Y012192D01*
X025800Y012038D01*
X025723Y011961D01*
X025953Y012115D02*
X026107Y012268D01*
X032055Y009143D02*
X032362Y008683D01*
X032516Y008683D02*
X032823Y008990D01*
X032823Y009067D01*
X032746Y009143D01*
X032592Y009143D01*
X032516Y009067D01*
X032362Y009143D02*
X032055Y008683D01*
X032516Y008683D02*
X032823Y008683D01*
X037976Y013245D02*
X037976Y013706D01*
X038206Y013706D01*
X038283Y013629D01*
X038283Y013476D01*
X038206Y013399D01*
X037976Y013399D01*
X038129Y013399D02*
X038283Y013245D01*
X038436Y013476D02*
X038743Y013476D01*
X038667Y013706D02*
X038436Y013476D01*
X038667Y013706D02*
X038667Y013245D01*
X037061Y013495D02*
X036601Y013495D01*
X036601Y013726D01*
X036677Y013802D01*
X036831Y013802D01*
X036908Y013726D01*
X036908Y013495D01*
X036908Y013649D02*
X037061Y013802D01*
X037061Y013956D02*
X037061Y014263D01*
X037061Y014416D02*
X037061Y014723D01*
X037061Y014570D02*
X036601Y014570D01*
X036754Y014416D01*
X036601Y014109D02*
X037061Y014109D01*
X036754Y013956D02*
X036601Y014109D01*
X040413Y014109D02*
X040873Y014109D01*
X040873Y013956D02*
X040873Y014263D01*
X040873Y014416D02*
X040567Y014723D01*
X040490Y014723D01*
X040413Y014646D01*
X040413Y014493D01*
X040490Y014416D01*
X040413Y014109D02*
X040567Y013956D01*
X040643Y013802D02*
X040720Y013726D01*
X040720Y013495D01*
X040873Y013495D02*
X040413Y013495D01*
X040413Y013726D01*
X040490Y013802D01*
X040643Y013802D01*
X040720Y013649D02*
X040873Y013802D01*
X040873Y014416D02*
X040873Y014723D01*
X041788Y013706D02*
X042019Y013706D01*
X042095Y013629D01*
X042095Y013476D01*
X042019Y013399D01*
X041788Y013399D01*
X041788Y013245D02*
X041788Y013706D01*
X041942Y013399D02*
X042095Y013245D01*
X042249Y013322D02*
X042326Y013245D01*
X042479Y013245D01*
X042556Y013322D01*
X042556Y013399D01*
X042479Y013476D01*
X042402Y013476D01*
X042479Y013476D02*
X042556Y013552D01*
X042556Y013629D01*
X042479Y013706D01*
X042326Y013706D01*
X042249Y013629D01*
X044413Y014385D02*
X044413Y014692D01*
X044490Y014768D01*
X044644Y014768D01*
X044720Y014692D01*
X044874Y014615D02*
X045027Y014768D01*
X045027Y014308D01*
X044874Y014308D02*
X045181Y014308D01*
X045334Y014385D02*
X045411Y014308D01*
X045564Y014308D01*
X045641Y014385D01*
X045641Y014538D01*
X045564Y014615D01*
X045488Y014615D01*
X045334Y014538D01*
X045334Y014768D01*
X045641Y014768D01*
X044720Y014385D02*
X044644Y014308D01*
X044490Y014308D01*
X044413Y014385D01*
X042479Y017745D02*
X042326Y017745D01*
X042249Y017822D01*
X042249Y017976D02*
X042402Y018052D01*
X042479Y018052D01*
X042556Y017976D01*
X042556Y017822D01*
X042479Y017745D01*
X042249Y017976D02*
X042249Y018206D01*
X042556Y018206D01*
X042095Y018129D02*
X042095Y017976D01*
X042019Y017899D01*
X041788Y017899D01*
X041788Y017745D02*
X041788Y018206D01*
X042019Y018206D01*
X042095Y018129D01*
X041942Y017899D02*
X042095Y017745D01*
X040873Y017995D02*
X040413Y017995D01*
X040413Y018226D01*
X040490Y018302D01*
X040643Y018302D01*
X040720Y018226D01*
X040720Y017995D01*
X040720Y018149D02*
X040873Y018302D01*
X040873Y018456D02*
X040873Y018763D01*
X040873Y018609D02*
X040413Y018609D01*
X040567Y018456D01*
X040490Y018916D02*
X040413Y018993D01*
X040413Y019146D01*
X040490Y019223D01*
X040567Y019223D01*
X040643Y019146D01*
X040720Y019223D01*
X040797Y019223D01*
X040873Y019146D01*
X040873Y018993D01*
X040797Y018916D01*
X040643Y019070D02*
X040643Y019146D01*
X038743Y018206D02*
X038590Y018129D01*
X038436Y017976D01*
X038667Y017976D01*
X038743Y017899D01*
X038743Y017822D01*
X038667Y017745D01*
X038513Y017745D01*
X038436Y017822D01*
X038436Y017976D01*
X038283Y017976D02*
X038283Y018129D01*
X038206Y018206D01*
X037976Y018206D01*
X037976Y017745D01*
X037976Y017899D02*
X038206Y017899D01*
X038283Y017976D01*
X038129Y017899D02*
X038283Y017745D01*
X037061Y017995D02*
X036601Y017995D01*
X036601Y018226D01*
X036677Y018302D01*
X036831Y018302D01*
X036908Y018226D01*
X036908Y017995D01*
X036908Y018149D02*
X037061Y018302D01*
X037061Y018456D02*
X037061Y018763D01*
X037061Y018609D02*
X036601Y018609D01*
X036754Y018456D01*
X036831Y018916D02*
X036831Y019223D01*
X037061Y019146D02*
X036601Y019146D01*
X036831Y018916D01*
X037976Y022183D02*
X037976Y022643D01*
X038206Y022643D01*
X038283Y022567D01*
X038283Y022413D01*
X038206Y022336D01*
X037976Y022336D01*
X038129Y022336D02*
X038283Y022183D01*
X038436Y022260D02*
X038436Y022336D01*
X038513Y022413D01*
X038667Y022413D01*
X038743Y022336D01*
X038743Y022260D01*
X038667Y022183D01*
X038513Y022183D01*
X038436Y022260D01*
X038513Y022413D02*
X038436Y022490D01*
X038436Y022567D01*
X038513Y022643D01*
X038667Y022643D01*
X038743Y022567D01*
X038743Y022490D01*
X038667Y022413D01*
X037061Y022495D02*
X036601Y022495D01*
X036601Y022726D01*
X036677Y022802D01*
X036831Y022802D01*
X036908Y022726D01*
X036908Y022495D01*
X036908Y022649D02*
X037061Y022802D01*
X037061Y022956D02*
X037061Y023263D01*
X037061Y023109D02*
X036601Y023109D01*
X036754Y022956D01*
X036831Y023416D02*
X036831Y023646D01*
X036908Y023723D01*
X036984Y023723D01*
X037061Y023646D01*
X037061Y023493D01*
X036984Y023416D01*
X036831Y023416D01*
X036677Y023570D01*
X036601Y023723D01*
X040413Y023723D02*
X040413Y023416D01*
X040643Y023416D01*
X040567Y023570D01*
X040567Y023646D01*
X040643Y023723D01*
X040797Y023723D01*
X040873Y023646D01*
X040873Y023493D01*
X040797Y023416D01*
X040873Y023263D02*
X040873Y022956D01*
X040873Y023109D02*
X040413Y023109D01*
X040567Y022956D01*
X040643Y022802D02*
X040720Y022726D01*
X040720Y022495D01*
X040873Y022495D02*
X040413Y022495D01*
X040413Y022726D01*
X040490Y022802D01*
X040643Y022802D01*
X040720Y022649D02*
X040873Y022802D01*
X041788Y022643D02*
X041788Y022183D01*
X041788Y022336D02*
X042019Y022336D01*
X042095Y022413D01*
X042095Y022567D01*
X042019Y022643D01*
X041788Y022643D01*
X041942Y022336D02*
X042095Y022183D01*
X042249Y022183D02*
X042249Y022260D01*
X042556Y022567D01*
X042556Y022643D01*
X042249Y022643D01*
X043613Y018888D02*
X043690Y018734D01*
X043843Y018581D01*
X043843Y018811D01*
X043920Y018888D01*
X043997Y018888D01*
X044073Y018811D01*
X044073Y018658D01*
X043997Y018581D01*
X043843Y018581D01*
X043613Y018427D02*
X044073Y018120D01*
X044073Y018427D02*
X043613Y018120D01*
X042479Y026745D02*
X042556Y026822D01*
X042556Y027129D01*
X042479Y027206D01*
X042326Y027206D01*
X042249Y027129D01*
X042249Y027052D01*
X042326Y026976D01*
X042556Y026976D01*
X042479Y026745D02*
X042326Y026745D01*
X042249Y026822D01*
X042095Y026745D02*
X041942Y026899D01*
X042019Y026899D02*
X041788Y026899D01*
X041788Y026745D02*
X041788Y027206D01*
X042019Y027206D01*
X042095Y027129D01*
X042095Y026976D01*
X042019Y026899D01*
X040873Y026995D02*
X040413Y026995D01*
X040413Y027226D01*
X040490Y027302D01*
X040643Y027302D01*
X040720Y027226D01*
X040720Y026995D01*
X040720Y027149D02*
X040873Y027302D01*
X040873Y027456D02*
X040873Y027763D01*
X040873Y027916D02*
X040797Y027916D01*
X040490Y028223D01*
X040413Y028223D01*
X040413Y027916D01*
X040413Y027609D02*
X040873Y027609D01*
X040567Y027456D02*
X040413Y027609D01*
X039204Y027129D02*
X038897Y026822D01*
X038973Y026745D01*
X039127Y026745D01*
X039204Y026822D01*
X039204Y027129D01*
X039127Y027206D01*
X038973Y027206D01*
X038897Y027129D01*
X038897Y026822D01*
X038743Y026745D02*
X038436Y026745D01*
X038283Y026745D02*
X038129Y026899D01*
X038206Y026899D02*
X037976Y026899D01*
X037976Y026745D02*
X037976Y027206D01*
X038206Y027206D01*
X038283Y027129D01*
X038283Y026976D01*
X038206Y026899D01*
X038436Y027052D02*
X038590Y027206D01*
X038590Y026745D01*
X037061Y026995D02*
X036601Y026995D01*
X036601Y027226D01*
X036677Y027302D01*
X036831Y027302D01*
X036908Y027226D01*
X036908Y026995D01*
X036908Y027149D02*
X037061Y027302D01*
X037061Y027456D02*
X037061Y027763D01*
X037061Y027609D02*
X036601Y027609D01*
X036754Y027456D01*
X036754Y027916D02*
X036677Y027916D01*
X036601Y027993D01*
X036601Y028146D01*
X036677Y028223D01*
X036754Y028223D01*
X036831Y028146D01*
X036831Y027993D01*
X036754Y027916D01*
X036831Y027993D02*
X036908Y027916D01*
X036984Y027916D01*
X037061Y027993D01*
X037061Y028146D01*
X036984Y028223D01*
X036908Y028223D01*
X036831Y028146D01*
X035611Y029512D02*
X035151Y029819D01*
X035151Y029973D02*
X035381Y029973D01*
X035304Y030126D01*
X035304Y030203D01*
X035381Y030280D01*
X035534Y030280D01*
X035611Y030203D01*
X035611Y030049D01*
X035534Y029973D01*
X035611Y029819D02*
X035151Y029512D01*
X035151Y029973D02*
X035151Y030280D01*
X020868Y030713D02*
X020561Y030713D01*
X020792Y030943D01*
X020792Y030483D01*
X020408Y030483D02*
X020101Y030943D01*
X020408Y030943D02*
X020101Y030483D01*
X009618Y030560D02*
X009542Y030483D01*
X009388Y030483D01*
X009311Y030560D01*
X009158Y030483D02*
X008851Y030943D01*
X009158Y030943D02*
X008851Y030483D01*
X009311Y030867D02*
X009388Y030943D01*
X009542Y030943D01*
X009618Y030867D01*
X009618Y030790D01*
X009542Y030713D01*
X009618Y030636D01*
X009618Y030560D01*
X009542Y030713D02*
X009465Y030713D01*
X004761Y020200D02*
X004761Y019893D01*
X004761Y019740D02*
X004301Y019433D01*
X004301Y019740D02*
X004761Y019433D01*
X004454Y019893D02*
X004301Y020047D01*
X004761Y020047D01*
X017095Y012504D02*
X017095Y012197D01*
X017172Y012120D01*
X017325Y012120D01*
X017402Y012197D01*
X017555Y012120D02*
X017862Y012427D01*
X017862Y012504D01*
X017785Y012581D01*
X017632Y012581D01*
X017555Y012504D01*
X017402Y012504D02*
X017325Y012581D01*
X017172Y012581D01*
X017095Y012504D01*
X017555Y012120D02*
X017862Y012120D01*
X018016Y012197D02*
X018092Y012120D01*
X018246Y012120D01*
X018323Y012197D01*
X018323Y012274D01*
X018246Y012351D01*
X018169Y012351D01*
X018246Y012351D02*
X018323Y012427D01*
X018323Y012504D01*
X018246Y012581D01*
X018092Y012581D01*
X018016Y012504D01*
X018092Y011706D02*
X018016Y011629D01*
X018092Y011706D02*
X018246Y011706D01*
X018323Y011629D01*
X018323Y011552D01*
X018016Y011245D01*
X018323Y011245D01*
X017862Y011245D02*
X017555Y011245D01*
X017862Y011552D01*
X017862Y011629D01*
X017785Y011706D01*
X017632Y011706D01*
X017555Y011629D01*
X017402Y011629D02*
X017325Y011706D01*
X017172Y011706D01*
X017095Y011629D01*
X017095Y011322D01*
X017172Y011245D01*
X017325Y011245D01*
X017402Y011322D01*
D14*
X022393Y014188D02*
X022693Y014188D01*
X022843Y014338D01*
X022693Y014488D01*
X022393Y014488D01*
X022468Y014648D02*
X022393Y014723D01*
X022393Y014874D01*
X022468Y014949D01*
X022543Y014949D01*
X022843Y014648D01*
X022843Y014949D01*
X026412Y018076D02*
X026487Y018000D01*
X026637Y018000D01*
X026713Y018076D01*
X026873Y018000D02*
X027173Y018000D01*
X027023Y018000D02*
X027023Y018451D01*
X026873Y018301D01*
X026713Y018376D02*
X026637Y018451D01*
X026487Y018451D01*
X026412Y018376D01*
X026412Y018076D01*
X027333Y018000D02*
X027633Y018000D01*
X027483Y018000D02*
X027483Y018451D01*
X027333Y018301D01*
X029316Y015301D02*
X029466Y015301D01*
X029391Y015301D02*
X029391Y014850D01*
X029316Y014850D02*
X029466Y014850D01*
X029623Y014926D02*
X029698Y014850D01*
X029848Y014850D01*
X029923Y014926D01*
X030083Y014926D02*
X030158Y014850D01*
X030308Y014850D01*
X030383Y014926D01*
X030383Y015001D01*
X030308Y015076D01*
X030233Y015076D01*
X030308Y015076D02*
X030383Y015151D01*
X030383Y015226D01*
X030308Y015301D01*
X030158Y015301D01*
X030083Y015226D01*
X029923Y015226D02*
X029848Y015301D01*
X029698Y015301D01*
X029623Y015226D01*
X029623Y014926D01*
X032887Y009726D02*
X032812Y009651D01*
X032812Y009351D01*
X032887Y009275D01*
X033037Y009275D01*
X033113Y009351D01*
X033273Y009275D02*
X033573Y009275D01*
X033423Y009275D02*
X033423Y009726D01*
X033273Y009576D01*
X033113Y009651D02*
X033037Y009726D01*
X032887Y009726D01*
X033733Y009726D02*
X034033Y009726D01*
X034033Y009651D01*
X033733Y009351D01*
X033733Y009275D01*
X039736Y012625D02*
X039736Y012926D01*
X039736Y012776D02*
X040186Y012776D01*
X040111Y013086D02*
X040036Y013086D01*
X039961Y013161D01*
X039961Y013311D01*
X040036Y013386D01*
X040111Y013386D01*
X040186Y013311D01*
X040186Y013161D01*
X040111Y013086D01*
X039961Y013161D02*
X039886Y013086D01*
X039811Y013086D01*
X039736Y013161D01*
X039736Y013311D01*
X039811Y013386D01*
X039886Y013386D01*
X039961Y013311D01*
X043548Y013236D02*
X043698Y013086D01*
X043548Y013236D02*
X043998Y013236D01*
X043998Y013086D02*
X043998Y013386D01*
X043548Y012926D02*
X043548Y012625D01*
X043548Y012776D02*
X043998Y012776D01*
X043604Y015625D02*
X043454Y015625D01*
X043379Y015701D01*
X043219Y015701D02*
X043144Y015625D01*
X042994Y015625D01*
X042918Y015701D01*
X042918Y016001D01*
X042994Y016076D01*
X043144Y016076D01*
X043219Y016001D01*
X043379Y016001D02*
X043379Y015926D01*
X043454Y015851D01*
X043679Y015851D01*
X043679Y015701D02*
X043679Y016001D01*
X043604Y016076D01*
X043454Y016076D01*
X043379Y016001D01*
X043679Y015701D02*
X043604Y015625D01*
X043548Y017125D02*
X043548Y017426D01*
X043548Y017276D02*
X043998Y017276D01*
X043998Y017586D02*
X043698Y017886D01*
X043623Y017886D01*
X043548Y017811D01*
X043548Y017661D01*
X043623Y017586D01*
X043998Y017586D02*
X043998Y017886D01*
X040186Y017586D02*
X040111Y017586D01*
X039811Y017886D01*
X039736Y017886D01*
X039736Y017586D01*
X039736Y017426D02*
X039736Y017125D01*
X039736Y017276D02*
X040186Y017276D01*
X039736Y021625D02*
X039736Y021926D01*
X039736Y021776D02*
X040186Y021776D01*
X040111Y022086D02*
X039961Y022086D01*
X039961Y022311D01*
X040036Y022386D01*
X040111Y022386D01*
X040186Y022311D01*
X040186Y022161D01*
X040111Y022086D01*
X039961Y022086D02*
X039811Y022236D01*
X039736Y022386D01*
X043548Y022311D02*
X043548Y022161D01*
X043623Y022086D01*
X043548Y021926D02*
X043548Y021625D01*
X043548Y021776D02*
X043998Y021776D01*
X043923Y022086D02*
X043998Y022161D01*
X043998Y022311D01*
X043923Y022386D01*
X043848Y022386D01*
X043773Y022311D01*
X043773Y022236D01*
X043773Y022311D02*
X043698Y022386D01*
X043623Y022386D01*
X043548Y022311D01*
X043548Y026125D02*
X043548Y026426D01*
X043548Y026276D02*
X043998Y026276D01*
X043773Y026586D02*
X043773Y026886D01*
X043548Y026811D02*
X043773Y026586D01*
X043998Y026811D02*
X043548Y026811D01*
X040186Y026811D02*
X040186Y026661D01*
X040111Y026586D01*
X039961Y026586D02*
X039886Y026736D01*
X039886Y026811D01*
X039961Y026886D01*
X040111Y026886D01*
X040186Y026811D01*
X039961Y026586D02*
X039736Y026586D01*
X039736Y026886D01*
X039736Y026426D02*
X039736Y026125D01*
X039736Y026276D02*
X040186Y026276D01*
X041994Y029125D02*
X042144Y029125D01*
X042219Y029201D01*
X042379Y029125D02*
X042679Y029125D01*
X042529Y029125D02*
X042529Y029576D01*
X042379Y029426D01*
X042219Y029501D02*
X042144Y029576D01*
X041994Y029576D01*
X041918Y029501D01*
X041918Y029201D01*
X041994Y029125D01*
X042839Y029201D02*
X042914Y029125D01*
X043064Y029125D01*
X043140Y029201D01*
X043140Y029276D01*
X043064Y029351D01*
X042989Y029351D01*
X043064Y029351D02*
X043140Y029426D01*
X043140Y029501D01*
X043064Y029576D01*
X042914Y029576D01*
X042839Y029501D01*
X014743Y020478D02*
X014668Y020478D01*
X014368Y020778D01*
X014293Y020778D01*
X014293Y020478D01*
X014368Y020317D02*
X014293Y020242D01*
X014293Y020092D01*
X014368Y020017D01*
X014668Y020017D01*
X014743Y020092D01*
X014743Y020242D01*
X014668Y020317D01*
X006906Y009478D02*
X006906Y009178D01*
X006906Y009328D02*
X006456Y009328D01*
X006606Y009178D01*
X006506Y008278D02*
X006506Y007978D01*
X006506Y008128D02*
X006956Y008128D01*
X006956Y007817D02*
X006806Y007667D01*
X006806Y007742D02*
X006806Y007517D01*
X006956Y007517D02*
X006506Y007517D01*
X006506Y007742D01*
X006581Y007817D01*
X006731Y007817D01*
X006806Y007742D01*
X006731Y007357D02*
X006731Y007057D01*
X006656Y007057D02*
X006956Y007057D01*
X006881Y006897D02*
X006506Y006897D01*
X006656Y007057D02*
X006506Y007207D01*
X006656Y007357D01*
X006956Y007357D01*
X006881Y006897D02*
X006956Y006822D01*
X006956Y006671D01*
X006881Y006596D01*
X006506Y006596D01*
X006456Y004478D02*
X006531Y004328D01*
X006681Y004178D01*
X006681Y004403D01*
X006756Y004478D01*
X006831Y004478D01*
X006906Y004403D01*
X006906Y004253D01*
X006831Y004178D01*
X006681Y004178D01*
D15*
X023018Y014283D02*
X027018Y014283D01*
X030398Y015475D02*
X030398Y019475D01*
D16*
X037981Y019100D03*
X041793Y019100D03*
X041793Y023600D03*
X037981Y023600D03*
X037981Y028100D03*
X041793Y028100D03*
X041793Y014600D03*
X037981Y014600D03*
D17*
X038231Y012875D03*
X042043Y012875D03*
X042043Y016325D03*
X042043Y017375D03*
X038231Y017375D03*
X038231Y016325D03*
X038231Y020825D03*
X038231Y021875D03*
X042043Y021875D03*
X042043Y020825D03*
X042043Y025325D03*
X042043Y026375D03*
X038231Y026375D03*
X038231Y025325D03*
X038231Y029825D03*
X042043Y029825D03*
D18*
X042043Y028600D03*
X042043Y027600D03*
X038231Y027600D03*
X038231Y028600D03*
X038231Y024100D03*
X038231Y023100D03*
X042043Y023100D03*
X042043Y024100D03*
X042043Y019600D03*
X042043Y018600D03*
X038231Y018600D03*
X038231Y019600D03*
X038231Y015100D03*
X038231Y014100D03*
X042043Y014100D03*
X042043Y015100D03*
D19*
X044240Y018163D02*
X047547Y018163D01*
X047547Y021359D01*
X047547Y022842D01*
X046937Y022842D01*
X046937Y021359D01*
X047547Y021359D01*
X047183Y021359D02*
X047183Y018606D01*
X044604Y018606D01*
X044604Y025595D01*
X047183Y025595D01*
X047183Y022842D01*
X047547Y022842D02*
X047547Y023856D01*
X047429Y023856D01*
X047429Y024438D01*
X047547Y024438D01*
X047547Y026038D01*
X044240Y026038D01*
X044240Y018163D01*
X034985Y019476D02*
X031677Y019476D01*
X031677Y021575D01*
X031796Y021575D01*
X031796Y022157D01*
X031677Y022157D01*
X031677Y024172D01*
X031677Y025654D01*
X031677Y027575D01*
X031796Y027575D01*
X031796Y028157D01*
X031677Y028157D01*
X031677Y030350D01*
X034985Y030350D01*
X034985Y028154D01*
X034374Y028154D01*
X034374Y026672D01*
X034985Y026672D01*
X034985Y023154D01*
X034374Y023154D01*
X034374Y021672D01*
X034985Y021672D01*
X034985Y019476D01*
X034620Y019919D02*
X032042Y019919D01*
X032042Y024172D01*
X032288Y024172D02*
X031677Y024172D01*
X032288Y024172D02*
X032288Y025654D01*
X031677Y025654D01*
X032042Y025654D02*
X032042Y029907D01*
X034620Y029907D01*
X034620Y028157D01*
X034985Y028154D02*
X034985Y026672D01*
X034620Y026671D02*
X034620Y023155D01*
X034985Y023154D02*
X034985Y021672D01*
X034620Y021669D02*
X034620Y019919D01*
X031018Y027009D02*
X028919Y027009D01*
X028919Y027128D01*
X028336Y027128D01*
X028336Y027009D01*
X026322Y027009D01*
X024840Y027009D01*
X022919Y027009D01*
X022919Y027128D01*
X022336Y027128D01*
X022336Y027009D01*
X020144Y027009D01*
X020144Y030317D01*
X022340Y030317D01*
X022340Y029706D01*
X023822Y029706D01*
X023822Y030317D01*
X027340Y030317D01*
X027340Y029706D01*
X028822Y029706D01*
X028822Y030317D01*
X031018Y030317D01*
X031018Y027009D01*
X030575Y027374D02*
X026322Y027374D01*
X026322Y027620D02*
X026322Y027009D01*
X026322Y027620D02*
X024840Y027620D01*
X024840Y027009D01*
X024840Y027374D02*
X020587Y027374D01*
X020587Y029952D01*
X022337Y029952D01*
X022340Y030317D02*
X023822Y030317D01*
X023823Y029952D02*
X027339Y029952D01*
X027340Y030317D02*
X028822Y030317D01*
X028825Y029952D02*
X030575Y029952D01*
X030575Y027374D01*
X019768Y027009D02*
X017669Y027009D01*
X017669Y027128D01*
X017086Y027128D01*
X017086Y027009D01*
X015072Y027009D01*
X013590Y027009D01*
X011669Y027009D01*
X011669Y027128D01*
X011086Y027128D01*
X011086Y027009D01*
X008894Y027009D01*
X008894Y030317D01*
X011090Y030317D01*
X011090Y029706D01*
X012572Y029706D01*
X012572Y030317D01*
X016090Y030317D01*
X016090Y029706D01*
X017572Y029706D01*
X017572Y030317D01*
X019768Y030317D01*
X019768Y027009D01*
X019325Y027374D02*
X015072Y027374D01*
X015072Y027620D02*
X015072Y027009D01*
X015072Y027620D02*
X013590Y027620D01*
X013590Y027009D01*
X013590Y027374D02*
X009337Y027374D01*
X009337Y029952D01*
X011087Y029952D01*
X011090Y030317D02*
X012572Y030317D01*
X012573Y029952D02*
X016089Y029952D01*
X016090Y030317D02*
X017572Y030317D01*
X017575Y029952D02*
X019325Y029952D01*
X019325Y027374D01*
X008235Y027669D02*
X008235Y025654D01*
X008235Y024172D01*
X008235Y022251D01*
X008116Y022251D01*
X008116Y021669D01*
X008235Y021669D01*
X008235Y019476D01*
X004927Y019476D01*
X004927Y021672D01*
X005538Y021672D01*
X005538Y023154D01*
X004927Y023154D01*
X004927Y026672D01*
X005538Y026672D01*
X005538Y028154D01*
X004927Y028154D01*
X004927Y030350D01*
X008235Y030350D01*
X008235Y028251D01*
X008116Y028251D01*
X008116Y027669D01*
X008235Y027669D01*
X008235Y025654D02*
X007624Y025654D01*
X007624Y024172D01*
X008235Y024172D01*
X007870Y024172D02*
X007870Y019919D01*
X005292Y019919D01*
X005292Y021669D01*
X004927Y021672D02*
X004927Y023154D01*
X005292Y023155D02*
X005292Y026671D01*
X004927Y026672D02*
X004927Y028154D01*
X005292Y028157D02*
X005292Y029907D01*
X007870Y029907D01*
X007870Y025654D01*
X008235Y018975D02*
X004927Y018975D01*
X004927Y011101D01*
X008235Y011101D01*
X008235Y014297D01*
X008235Y015779D01*
X007624Y015779D01*
X007624Y014297D01*
X008235Y014297D01*
X007870Y014297D02*
X007870Y011544D01*
X005292Y011544D01*
X005292Y018532D01*
X007870Y018532D01*
X007870Y015779D01*
X008235Y015779D02*
X008235Y016794D01*
X008116Y016794D01*
X008116Y017376D01*
X008235Y017376D01*
X008235Y018975D01*
X023740Y012350D02*
X027047Y012350D01*
X027047Y010751D01*
X026929Y010751D01*
X026929Y010169D01*
X027047Y010169D01*
X027047Y009154D01*
X027047Y007672D01*
X027047Y004476D01*
X023740Y004476D01*
X023740Y012350D01*
X024104Y011907D02*
X026683Y011907D01*
X026683Y009154D01*
X026437Y009154D02*
X027047Y009154D01*
X026437Y009154D02*
X026437Y007672D01*
X027047Y007672D01*
X026683Y007672D02*
X026683Y004919D01*
X024104Y004919D01*
X024104Y011907D01*
X020567Y006668D02*
X020095Y006668D01*
X019347Y006156D02*
X019347Y005920D01*
X020095Y005408D02*
X020567Y005408D01*
X021315Y005920D02*
X021315Y006156D01*
X015456Y005557D02*
X015456Y006769D01*
X014956Y007163D02*
X013968Y007163D01*
X013456Y006769D02*
X013456Y005557D01*
X013968Y005163D02*
X014944Y005163D01*
X013956Y006163D02*
X013958Y006207D01*
X013964Y006251D01*
X013974Y006294D01*
X013987Y006336D01*
X014004Y006377D01*
X014025Y006416D01*
X014049Y006453D01*
X014076Y006488D01*
X014106Y006520D01*
X014139Y006550D01*
X014175Y006576D01*
X014212Y006600D01*
X014252Y006619D01*
X014293Y006636D01*
X014336Y006648D01*
X014379Y006657D01*
X014423Y006662D01*
X014467Y006663D01*
X014511Y006660D01*
X014555Y006653D01*
X014598Y006642D01*
X014640Y006628D01*
X014680Y006610D01*
X014719Y006588D01*
X014755Y006564D01*
X014789Y006536D01*
X014821Y006505D01*
X014850Y006471D01*
X014876Y006435D01*
X014898Y006397D01*
X014917Y006357D01*
X014932Y006315D01*
X014944Y006273D01*
X014952Y006229D01*
X014956Y006185D01*
X014956Y006141D01*
X014952Y006097D01*
X014944Y006053D01*
X014932Y006011D01*
X014917Y005969D01*
X014898Y005929D01*
X014876Y005891D01*
X014850Y005855D01*
X014821Y005821D01*
X014789Y005790D01*
X014755Y005762D01*
X014719Y005738D01*
X014680Y005716D01*
X014640Y005698D01*
X014598Y005684D01*
X014555Y005673D01*
X014511Y005666D01*
X014467Y005663D01*
X014423Y005664D01*
X014379Y005669D01*
X014336Y005678D01*
X014293Y005690D01*
X014252Y005707D01*
X014212Y005726D01*
X014175Y005750D01*
X014139Y005776D01*
X014106Y005806D01*
X014076Y005838D01*
X014049Y005873D01*
X014025Y005910D01*
X014004Y005949D01*
X013987Y005990D01*
X013974Y006032D01*
X013964Y006075D01*
X013958Y006119D01*
X013956Y006163D01*
D20*
X029613Y005862D02*
X029613Y005153D01*
X029614Y005153D02*
X029643Y005112D01*
X029675Y005073D01*
X029710Y005036D01*
X029747Y005003D01*
X029787Y004972D01*
X029829Y004945D01*
X029873Y004920D01*
X029919Y004900D01*
X029967Y004883D01*
X030015Y004869D01*
X030065Y004860D01*
X030115Y004854D01*
X030165Y004852D01*
X030215Y004854D01*
X030265Y004860D01*
X030315Y004869D01*
X030363Y004883D01*
X030411Y004900D01*
X030457Y004920D01*
X030501Y004945D01*
X030543Y004972D01*
X030583Y005003D01*
X030620Y005036D01*
X030655Y005073D01*
X030687Y005112D01*
X030716Y005153D01*
X030676Y005114D02*
X030952Y005114D01*
X030991Y004641D02*
X030991Y007279D01*
X030963Y007281D01*
X030935Y007286D01*
X030908Y007296D01*
X030882Y007308D01*
X030859Y007324D01*
X030838Y007343D01*
X030819Y007364D01*
X030803Y007388D01*
X030791Y007413D01*
X030781Y007440D01*
X030776Y007468D01*
X030774Y007496D01*
X030776Y007524D01*
X030781Y007552D01*
X030791Y007579D01*
X030803Y007605D01*
X030819Y007628D01*
X030838Y007649D01*
X030859Y007668D01*
X030882Y007684D01*
X030908Y007696D01*
X030935Y007706D01*
X030963Y007711D01*
X030991Y007713D01*
X030991Y007712D02*
X030991Y008342D01*
X047921Y008342D01*
X047921Y004641D01*
X030991Y004641D01*
X030716Y005861D02*
X030687Y005902D01*
X030655Y005941D01*
X030620Y005978D01*
X030583Y006011D01*
X030543Y006042D01*
X030501Y006069D01*
X030457Y006094D01*
X030411Y006114D01*
X030363Y006131D01*
X030315Y006145D01*
X030265Y006154D01*
X030215Y006160D01*
X030165Y006162D01*
X030115Y006160D01*
X030065Y006154D01*
X030015Y006145D01*
X029967Y006131D01*
X029919Y006114D01*
X029873Y006094D01*
X029829Y006069D01*
X029787Y006042D01*
X029747Y006011D01*
X029710Y005978D01*
X029675Y005941D01*
X029643Y005902D01*
X029614Y005861D01*
X030676Y005901D02*
X030952Y005901D01*
X047960Y005901D02*
X048235Y005901D01*
X048196Y005153D02*
X048225Y005112D01*
X048257Y005073D01*
X048292Y005036D01*
X048329Y005003D01*
X048369Y004972D01*
X048411Y004945D01*
X048455Y004920D01*
X048501Y004900D01*
X048549Y004883D01*
X048597Y004869D01*
X048647Y004860D01*
X048697Y004854D01*
X048747Y004852D01*
X048797Y004854D01*
X048847Y004860D01*
X048897Y004869D01*
X048945Y004883D01*
X048993Y004900D01*
X049039Y004920D01*
X049083Y004945D01*
X049125Y004972D01*
X049165Y005003D01*
X049202Y005036D01*
X049237Y005073D01*
X049269Y005112D01*
X049298Y005153D01*
X049298Y005862D01*
X049298Y005861D02*
X049269Y005902D01*
X049237Y005941D01*
X049202Y005978D01*
X049165Y006011D01*
X049125Y006042D01*
X049083Y006069D01*
X049039Y006094D01*
X048993Y006114D01*
X048945Y006131D01*
X048897Y006145D01*
X048847Y006154D01*
X048797Y006160D01*
X048747Y006162D01*
X048697Y006160D01*
X048647Y006154D01*
X048597Y006145D01*
X048549Y006131D01*
X048501Y006114D01*
X048455Y006094D01*
X048411Y006069D01*
X048369Y006042D01*
X048329Y006011D01*
X048292Y005978D01*
X048257Y005941D01*
X048225Y005902D01*
X048196Y005861D01*
X048235Y005114D02*
X047960Y005114D01*
D21*
X021289Y005158D02*
X021264Y005133D01*
X021214Y005133D01*
X021189Y005158D01*
X021141Y005158D02*
X021116Y005133D01*
X021066Y005133D01*
X021041Y005158D01*
X021041Y005258D01*
X021066Y005283D01*
X021116Y005283D01*
X021141Y005258D01*
X021141Y005158D01*
X021141Y005133D02*
X021091Y005183D01*
X021189Y005258D02*
X021214Y005283D01*
X021264Y005283D01*
X021289Y005258D01*
X021289Y005233D01*
X021264Y005208D01*
X021289Y005183D01*
X021289Y005158D01*
X021264Y005208D02*
X021239Y005208D01*
X015311Y006248D02*
X015286Y006223D01*
X015311Y006248D02*
X015311Y006298D01*
X015286Y006323D01*
X015261Y006323D01*
X015236Y006298D01*
X015236Y006248D01*
X015211Y006223D01*
X015186Y006223D01*
X015161Y006248D01*
X015161Y006298D01*
X015186Y006323D01*
X015211Y006371D02*
X015161Y006421D01*
X015311Y006421D01*
X015311Y006371D02*
X015311Y006471D01*
M02*
