G75*
G70*
%OFA0B0*%
%FSLAX24Y24*%
%IPPOS*%
%LPD*%
%AMOC8*
5,1,8,0,0,1.08239X$1,22.5*
%
%ADD10R,0.0552X0.0198*%
%ADD11R,0.1025X0.2509*%
%ADD12OC8,0.0710*%
%ADD13C,0.0710*%
%ADD14R,0.0592X0.0710*%
%ADD15C,0.0671*%
%ADD16C,0.0680*%
%ADD17C,0.0671*%
%ADD18R,0.0907X0.0907*%
%ADD19C,0.1261*%
%ADD20R,0.0434X0.0395*%
%ADD21C,0.0560*%
%ADD22R,0.0671X0.0592*%
%ADD23R,0.0592X0.0671*%
%ADD24R,0.0710X0.0592*%
%ADD25C,0.0474*%
%ADD26C,0.0434*%
D10*
X010624Y020686D03*
X010624Y020941D03*
X010624Y021197D03*
X010624Y021453D03*
X010624Y021709D03*
X010624Y021965D03*
X010624Y022221D03*
X010624Y022477D03*
X010624Y022733D03*
X010624Y022989D03*
X010624Y023245D03*
X010624Y023501D03*
X010624Y023756D03*
X010624Y024012D03*
X012907Y024012D03*
X012907Y023756D03*
X012907Y023501D03*
X012907Y023245D03*
X012907Y022989D03*
X012907Y022733D03*
X012907Y022477D03*
X012907Y022221D03*
X012907Y021965D03*
X012907Y021709D03*
X012907Y021453D03*
X012907Y021197D03*
X012907Y020941D03*
X012907Y020686D03*
X015811Y020686D03*
X015811Y020941D03*
X015811Y021197D03*
X015811Y021453D03*
X015811Y021709D03*
X015811Y021965D03*
X015811Y022221D03*
X015811Y022477D03*
X015811Y022733D03*
X015811Y022989D03*
X015811Y023245D03*
X015811Y023501D03*
X015811Y023756D03*
X015811Y024012D03*
X018095Y024012D03*
X018095Y023756D03*
X018095Y023501D03*
X018095Y023245D03*
X018095Y022989D03*
X018095Y022733D03*
X018095Y022477D03*
X018095Y022221D03*
X018095Y021965D03*
X018095Y021709D03*
X018095Y021453D03*
X018095Y021197D03*
X018095Y020941D03*
X018095Y020686D03*
X021499Y020686D03*
X021499Y020941D03*
X021499Y021197D03*
X021499Y021453D03*
X021499Y021709D03*
X021499Y021965D03*
X021499Y022221D03*
X021499Y022477D03*
X021499Y022733D03*
X021499Y022989D03*
X021499Y023245D03*
X021499Y023501D03*
X021499Y023756D03*
X021499Y024012D03*
X023782Y024012D03*
X023782Y023756D03*
X023782Y023501D03*
X023782Y023245D03*
X023782Y022989D03*
X023782Y022733D03*
X023782Y022477D03*
X023782Y022221D03*
X023782Y021965D03*
X023782Y021709D03*
X023782Y021453D03*
X023782Y021197D03*
X023782Y020941D03*
X023782Y020686D03*
X027249Y020686D03*
X027249Y020941D03*
X027249Y021197D03*
X027249Y021453D03*
X027249Y021709D03*
X027249Y021965D03*
X027249Y022221D03*
X027249Y022477D03*
X027249Y022733D03*
X027249Y022989D03*
X027249Y023245D03*
X027249Y023501D03*
X027249Y023756D03*
X027249Y024012D03*
X029532Y024012D03*
X029532Y023756D03*
X029532Y023501D03*
X029532Y023245D03*
X029532Y022989D03*
X029532Y022733D03*
X029532Y022477D03*
X029532Y022221D03*
X029532Y021965D03*
X029532Y021709D03*
X029532Y021453D03*
X029532Y021197D03*
X029532Y020941D03*
X029532Y020686D03*
D11*
X028393Y022350D03*
X022643Y022350D03*
X016956Y022350D03*
X011768Y022350D03*
D12*
X014268Y017913D03*
X024768Y018475D03*
X035068Y011100D03*
X045393Y015600D03*
X045393Y029100D03*
D13*
X044393Y029100D03*
X025768Y018475D03*
X014268Y018913D03*
X036468Y011100D03*
X044393Y015600D03*
D14*
X031517Y021038D03*
X030769Y021038D03*
X020455Y012194D03*
X019707Y012194D03*
D15*
X038565Y018100D02*
X039097Y018100D01*
X039097Y019100D02*
X038565Y019100D01*
X038565Y020100D02*
X039097Y020100D01*
X042378Y015600D02*
X042909Y015600D01*
X042909Y014600D02*
X042378Y014600D01*
X042378Y013600D02*
X042909Y013600D01*
D16*
X039101Y013600D02*
X038561Y013600D01*
X038561Y014600D02*
X039101Y014600D01*
X039101Y015600D02*
X038561Y015600D01*
X042373Y018100D02*
X042913Y018100D01*
X042913Y019100D02*
X042373Y019100D01*
X042373Y020100D02*
X042913Y020100D01*
X042913Y022600D02*
X042373Y022600D01*
X042373Y023600D02*
X042913Y023600D01*
X042913Y024600D02*
X042373Y024600D01*
X039101Y024600D02*
X038561Y024600D01*
X038561Y023600D02*
X039101Y023600D01*
X039101Y022600D02*
X038561Y022600D01*
X038561Y027100D02*
X039101Y027100D01*
X039101Y028100D02*
X038561Y028100D01*
X038561Y029100D02*
X039101Y029100D01*
X042373Y029100D02*
X042913Y029100D01*
X042913Y028100D02*
X042373Y028100D01*
X042373Y027100D02*
X042913Y027100D01*
D17*
X045393Y024100D03*
X046393Y024100D03*
X046393Y023100D03*
X045393Y023100D03*
X045393Y022100D03*
X046393Y022100D03*
X046393Y021100D03*
X045393Y021100D03*
X045393Y020100D03*
X046393Y020100D03*
X033831Y021413D03*
X032831Y021413D03*
X032831Y022413D03*
X033831Y022413D03*
X033831Y023413D03*
X032831Y023413D03*
X032831Y024413D03*
X033831Y024413D03*
X033831Y025413D03*
X032831Y025413D03*
X032831Y026413D03*
X033831Y026413D03*
X033831Y027413D03*
X032831Y027413D03*
X032831Y028413D03*
X033831Y028413D03*
X029081Y028163D03*
X028081Y028163D03*
X027081Y028163D03*
X026081Y028163D03*
X025081Y028163D03*
X024081Y028163D03*
X023081Y028163D03*
X022081Y028163D03*
X022081Y029163D03*
X023081Y029163D03*
X024081Y029163D03*
X025081Y029163D03*
X026081Y029163D03*
X027081Y029163D03*
X028081Y029163D03*
X029081Y029163D03*
X017831Y029163D03*
X016831Y029163D03*
X015831Y029163D03*
X014831Y029163D03*
X013831Y029163D03*
X012831Y029163D03*
X011831Y029163D03*
X010831Y029163D03*
X010831Y028163D03*
X011831Y028163D03*
X012831Y028163D03*
X013831Y028163D03*
X014831Y028163D03*
X015831Y028163D03*
X016831Y028163D03*
X017831Y028163D03*
X007081Y028413D03*
X006081Y028413D03*
X006081Y027413D03*
X007081Y027413D03*
X007081Y026413D03*
X006081Y026413D03*
X006081Y025413D03*
X007081Y025413D03*
X007081Y024413D03*
X006081Y024413D03*
X006081Y023413D03*
X007081Y023413D03*
X007081Y022413D03*
X006081Y022413D03*
X006081Y021413D03*
X007081Y021413D03*
X007081Y017038D03*
X006081Y017038D03*
X006081Y016038D03*
X007081Y016038D03*
X007081Y015038D03*
X006081Y015038D03*
X006081Y014038D03*
X007081Y014038D03*
X007081Y013038D03*
X006081Y013038D03*
X024893Y010413D03*
X025893Y010413D03*
X025893Y009413D03*
X024893Y009413D03*
X024893Y008413D03*
X025893Y008413D03*
X025893Y007413D03*
X024893Y007413D03*
X024893Y006413D03*
X025893Y006413D03*
D18*
X032015Y007496D03*
X033669Y007496D03*
X035322Y007496D03*
X036976Y007496D03*
X038629Y007496D03*
X040283Y007496D03*
X041936Y007496D03*
X043590Y007496D03*
X045243Y007496D03*
X046897Y007496D03*
X046897Y005330D03*
X045243Y005330D03*
X043590Y005330D03*
X041936Y005330D03*
X040283Y005330D03*
X038629Y005330D03*
X036976Y005330D03*
X035322Y005330D03*
X033669Y005330D03*
X032015Y005330D03*
D19*
X030165Y005511D03*
X048747Y005511D03*
D20*
X027889Y004475D03*
X027062Y004101D03*
X027062Y004850D03*
D21*
X006047Y004413D02*
X005615Y004413D01*
X005615Y005413D02*
X006047Y005413D01*
X006047Y006413D02*
X005615Y006413D01*
X005615Y007413D02*
X006047Y007413D01*
X006047Y008413D02*
X005615Y008413D01*
X005615Y009413D02*
X006047Y009413D01*
D22*
X008581Y017664D03*
X008581Y018412D03*
D23*
X007080Y018413D03*
X006332Y018413D03*
D24*
X027831Y006975D03*
X027831Y006226D03*
X023331Y004912D03*
X023331Y004164D03*
D25*
X024393Y004913D03*
X023143Y005600D03*
X021956Y006538D03*
X024081Y007163D03*
X023518Y008350D03*
X024143Y009038D03*
X023143Y010038D03*
X022268Y009538D03*
X021331Y009288D03*
X020893Y009600D03*
X020428Y009885D03*
X018612Y010288D03*
X017831Y010413D03*
X017268Y010413D03*
X016456Y010413D03*
X016456Y009663D03*
X016518Y008975D03*
X016893Y008350D03*
X017706Y008600D03*
X017768Y009350D03*
X019331Y007600D03*
X017831Y006913D03*
X016831Y007038D03*
X016393Y006600D03*
X015831Y007163D03*
X015206Y007913D03*
X014393Y008163D03*
X014956Y008600D03*
X013643Y008600D03*
X013206Y009100D03*
X012393Y008913D03*
X011331Y009100D03*
X009206Y008288D03*
X007706Y008288D03*
X007581Y006913D03*
X007581Y005538D03*
X009206Y005538D03*
X011706Y005538D03*
X012518Y006225D03*
X013143Y006975D03*
X015893Y006163D03*
X015893Y005538D03*
X017018Y004475D03*
X018268Y005413D03*
X018956Y004788D03*
X021143Y004600D03*
X021956Y004600D03*
X026331Y004913D03*
X028643Y004975D03*
X027081Y006288D03*
X028581Y006788D03*
X029081Y007600D03*
X030331Y007600D03*
X030331Y010663D03*
X029081Y010663D03*
X029081Y013350D03*
X030331Y013350D03*
X032706Y013350D03*
X032956Y011600D03*
X034331Y011600D03*
X035018Y013350D03*
X035768Y014100D03*
X035768Y015725D03*
X034143Y015788D03*
X033081Y015225D03*
X030956Y015225D03*
X028206Y014538D03*
X026768Y014538D03*
X026768Y015350D03*
X026268Y016975D03*
X025706Y016975D03*
X025706Y017725D03*
X026268Y017725D03*
X027518Y017100D03*
X029425Y017725D03*
X029768Y018225D03*
X030143Y019663D03*
X031081Y019913D03*
X030175Y020350D03*
X030143Y021225D03*
X028831Y020663D03*
X028706Y019725D03*
X027768Y019225D03*
X027018Y019100D03*
X026268Y018975D03*
X024768Y019163D03*
X023706Y019225D03*
X022581Y018538D03*
X021581Y018975D03*
X020893Y019288D03*
X019612Y019225D03*
X020487Y020132D03*
X020081Y020413D03*
X021425Y020225D03*
X022581Y020475D03*
X023206Y020475D03*
X024581Y021225D03*
X024706Y022163D03*
X025518Y022163D03*
X026331Y022163D03*
X025518Y022975D03*
X023081Y023850D03*
X023268Y024600D03*
X022143Y024600D03*
X022268Y023850D03*
X019800Y023038D03*
X019800Y022163D03*
X020581Y022163D03*
X018956Y022163D03*
X018831Y021225D03*
X018643Y020663D03*
X017331Y020507D03*
X015643Y020163D03*
X015643Y019225D03*
X016518Y019225D03*
X018268Y019225D03*
X018112Y017975D03*
X019050Y017975D03*
X016768Y017975D03*
X015643Y017975D03*
X013018Y017975D03*
X013018Y019038D03*
X012206Y020538D03*
X011581Y020350D03*
X010206Y020350D03*
X008956Y020913D03*
X007768Y020913D03*
X010581Y018850D03*
X008581Y016975D03*
X008768Y016038D03*
X009643Y015225D03*
X008456Y014850D03*
X008518Y013725D03*
X009143Y013100D03*
X010893Y013100D03*
X010893Y013788D03*
X010893Y014788D03*
X012768Y014850D03*
X012768Y013788D03*
X012768Y013100D03*
X014518Y013100D03*
X014518Y013788D03*
X014518Y014850D03*
X017143Y014788D03*
X018143Y014663D03*
X017143Y013788D03*
X016893Y012975D03*
X016518Y012038D03*
X015768Y011975D03*
X015581Y011475D03*
X015143Y011038D03*
X013768Y011038D03*
X011893Y011038D03*
X019018Y011600D03*
X019143Y012225D03*
X019018Y013100D03*
X021331Y013100D03*
X023206Y012600D03*
X024237Y012382D03*
X024768Y012788D03*
X024518Y011600D03*
X023706Y011663D03*
X022768Y011538D03*
X021331Y011538D03*
X022018Y008350D03*
X014456Y004725D03*
X022706Y015350D03*
X024143Y015350D03*
X023831Y016975D03*
X024831Y016975D03*
X024831Y017725D03*
X022768Y016975D03*
X021331Y015913D03*
X019050Y015975D03*
X025768Y020600D03*
X027268Y020225D03*
X031456Y021788D03*
X031956Y019225D03*
X033518Y019225D03*
X035706Y018538D03*
X035706Y017225D03*
X034393Y017225D03*
X035831Y021538D03*
X035706Y024600D03*
X029550Y024663D03*
X027800Y024663D03*
X024331Y026663D03*
X021112Y027038D03*
X019925Y025913D03*
X018862Y026975D03*
X016237Y026100D03*
X015175Y027225D03*
X016300Y024475D03*
X017612Y024475D03*
X014268Y022163D03*
X013893Y021225D03*
X014268Y020663D03*
X011393Y023913D03*
X009643Y024944D03*
X008956Y025350D03*
X009643Y026882D03*
X007768Y026882D03*
X030112Y028475D03*
X035706Y029100D03*
X037206Y011538D03*
X037831Y009038D03*
X041956Y008725D03*
X046081Y006350D03*
X037768Y004163D03*
D26*
X012768Y024475D03*
M02*
